<svg xmlns="http://www.w3.org/2000/svg" xmlns:xlink="http://www.w3.org/1999/xlink" width="1024" zoomAndPan="magnify" viewBox="0 0 768 576" height="768" preserveAspectRatio="xMidYMid meet" version="1.0"><defs><g/></defs><path fill="#5ce054" d="M 232.007812 172.113281 C 234.828125 172.113281 237.648438 172.183594 240.464844 172.332031 C 243.285156 172.480469 246.097656 172.703125 248.902344 172.996094 C 251.707031 173.292969 254.503906 173.660156 257.292969 174.101562 C 260.078125 174.542969 262.851562 175.058594 265.613281 175.644531 C 268.371094 176.230469 271.113281 176.886719 273.839844 177.617188 C 276.566406 178.347656 279.269531 179.148438 281.953125 180.023438 C 284.636719 180.894531 287.296875 181.835938 289.929688 182.847656 C 292.5625 183.859375 295.167969 184.9375 297.746094 186.085938 C 300.324219 187.234375 302.871094 188.445312 305.386719 189.726562 C 307.898438 191.007812 310.378906 192.355469 312.820312 193.765625 C 315.265625 195.175781 317.671875 196.648438 320.035156 198.1875 C 322.402344 199.722656 324.726562 201.320312 327.011719 202.980469 C 329.292969 204.636719 331.53125 206.355469 333.722656 208.132812 C 335.917969 209.90625 338.0625 211.738281 340.15625 213.625 C 342.253906 215.515625 344.300781 217.457031 346.296875 219.453125 C 348.292969 221.445312 350.234375 223.492188 352.121094 225.589844 C 354.007812 227.6875 355.839844 229.832031 357.617188 232.023438 C 359.390625 234.214844 361.109375 236.453125 362.765625 238.738281 C 364.425781 241.019531 366.023438 243.34375 367.558594 245.710938 C 369.097656 248.078125 370.570312 250.480469 371.980469 252.925781 C 373.390625 255.371094 374.738281 257.847656 376.019531 260.363281 C 377.300781 262.875 378.515625 265.421875 379.664062 268 C 380.808594 270.578125 381.890625 273.183594 382.902344 275.816406 C 383.910156 278.453125 384.851562 281.109375 385.726562 283.792969 C 386.597656 286.476562 387.398438 289.183594 388.128906 291.90625 C 388.859375 294.632812 389.515625 297.375 390.105469 300.136719 C 390.691406 302.894531 391.203125 305.667969 391.644531 308.457031 C 392.085938 311.242188 392.457031 314.039062 392.75 316.84375 C 393.046875 319.652344 393.265625 322.464844 393.414062 325.28125 C 393.5625 328.097656 393.636719 330.917969 393.636719 333.738281 C 393.636719 336.5625 393.5625 339.382812 393.414062 342.199219 C 393.265625 345.015625 393.046875 347.828125 392.75 350.632812 L 312.378906 342.1875 C 312.527344 340.785156 312.636719 339.378906 312.710938 337.96875 C 312.785156 336.5625 312.820312 335.152344 312.820312 333.738281 C 312.820312 332.328125 312.785156 330.917969 312.710938 329.511719 C 312.636719 328.101562 312.527344 326.695312 312.378906 325.292969 C 312.230469 323.890625 312.046875 322.492188 311.828125 321.097656 C 311.605469 319.703125 311.347656 318.316406 311.054688 316.9375 C 310.761719 315.558594 310.433594 314.1875 310.066406 312.824219 C 309.703125 311.460938 309.300781 310.109375 308.867188 308.765625 C 308.429688 307.425781 307.960938 306.097656 307.453125 304.777344 C 306.949219 303.460938 306.410156 302.160156 305.835938 300.871094 C 305.261719 299.582031 304.652344 298.308594 304.011719 297.050781 C 303.371094 295.792969 302.699219 294.554688 301.996094 293.332031 C 301.289062 292.109375 300.550781 290.910156 299.785156 289.726562 C 299.015625 288.542969 298.214844 287.378906 297.386719 286.238281 C 296.558594 285.097656 295.699219 283.976562 294.8125 282.882812 C 293.925781 281.785156 293.007812 280.714844 292.0625 279.664062 C 291.121094 278.617188 290.148438 277.59375 289.152344 276.59375 C 288.152344 275.597656 287.132812 274.628906 286.082031 273.683594 C 285.035156 272.738281 283.960938 271.824219 282.867188 270.933594 C 281.769531 270.046875 280.648438 269.1875 279.507812 268.359375 C 278.367188 267.53125 277.203125 266.730469 276.023438 265.964844 C 274.839844 265.195312 273.636719 264.457031 272.414062 263.753906 C 271.191406 263.046875 269.953125 262.375 268.695312 261.734375 C 267.4375 261.09375 266.167969 260.484375 264.878906 259.914062 C 263.589844 259.339844 262.285156 258.800781 260.96875 258.292969 C 259.652344 257.789062 258.320312 257.316406 256.980469 256.882812 C 255.636719 256.445312 254.285156 256.042969 252.921875 255.679688 C 251.5625 255.3125 250.1875 254.984375 248.808594 254.691406 C 247.429688 254.398438 246.042969 254.140625 244.648438 253.921875 C 243.257812 253.699219 241.859375 253.515625 240.453125 253.367188 C 239.050781 253.222656 237.644531 253.109375 236.238281 253.035156 C 234.828125 252.960938 233.417969 252.925781 232.007812 252.925781 Z M 232.007812 172.113281 " fill-opacity="1" fill-rule="nonzero"/><path fill="#004527" d="M 392.75 350.632812 C 392.117188 356.652344 391.152344 362.617188 389.847656 368.527344 C 388.546875 374.433594 386.917969 380.253906 384.960938 385.980469 C 383.003906 391.707031 380.734375 397.304688 378.148438 402.777344 C 375.566406 408.25 372.683594 413.558594 369.5 418.707031 C 366.320312 423.851562 362.859375 428.804688 359.125 433.566406 C 355.386719 438.324219 351.394531 442.859375 347.148438 447.171875 C 342.902344 451.480469 338.425781 455.539062 333.722656 459.347656 C 329.019531 463.15625 324.121094 466.691406 319.019531 469.949219 L 275.511719 401.84375 C 278.0625 400.214844 280.515625 398.449219 282.867188 396.542969 C 285.214844 394.640625 287.453125 392.609375 289.578125 390.457031 C 291.699219 388.300781 293.695312 386.03125 295.566406 383.652344 C 297.433594 381.273438 299.164062 378.796875 300.753906 376.222656 C 302.34375 373.648438 303.785156 370.992188 305.078125 368.257812 C 306.371094 365.523438 307.507812 362.722656 308.484375 359.859375 C 309.460938 356.996094 310.277344 354.085938 310.925781 351.132812 C 311.578125 348.179688 312.0625 345.195312 312.378906 342.1875 Z M 392.75 350.632812 " fill-opacity="1" fill-rule="nonzero"/><path fill="#88cafb" d="M 319.019531 469.949219 C 313.921875 473.207031 308.65625 476.167969 303.222656 478.832031 C 297.789062 481.5 292.226562 483.855469 286.53125 485.894531 C 280.832031 487.9375 275.039062 489.652344 269.152344 491.042969 C 263.261719 492.433594 257.3125 493.488281 251.304688 494.210938 C 245.296875 494.933594 239.265625 495.320312 233.214844 495.363281 C 227.164062 495.410156 221.128906 495.117188 215.113281 494.484375 C 209.09375 493.851562 203.128906 492.882812 197.222656 491.582031 C 191.3125 490.277344 185.492188 488.648438 179.765625 486.695312 L 205.886719 410.214844 C 208.75 411.195312 211.660156 412.007812 214.613281 412.660156 C 217.570312 413.3125 220.550781 413.796875 223.558594 414.113281 C 226.570312 414.429688 229.585938 414.574219 232.613281 414.550781 C 235.636719 414.53125 238.652344 414.335938 241.65625 413.976562 C 244.660156 413.613281 247.632812 413.085938 250.578125 412.390625 C 253.523438 411.695312 256.421875 410.839844 259.269531 409.816406 C 262.117188 408.796875 264.898438 407.621094 267.613281 406.285156 C 270.332031 404.953125 272.964844 403.472656 275.511719 401.84375 Z M 319.019531 469.949219 " fill-opacity="1" fill-rule="nonzero"/><path fill="#00a76e" d="M 179.765625 486.695312 C 174.039062 484.738281 168.441406 482.46875 162.96875 479.882812 C 157.5 477.296875 152.1875 474.414062 147.042969 471.234375 C 141.894531 468.054688 136.941406 464.59375 132.179688 460.855469 C 127.421875 457.117188 122.886719 453.128906 118.578125 448.878906 C 114.265625 444.632812 110.207031 440.160156 106.398438 435.457031 C 102.589844 430.753906 99.058594 425.851562 95.800781 420.753906 C 92.542969 415.652344 89.578125 410.386719 86.914062 404.957031 C 84.246094 399.523438 81.894531 393.957031 79.851562 388.261719 L 155.929688 361 C 156.949219 363.847656 158.128906 366.632812 159.460938 369.347656 C 160.792969 372.0625 162.273438 374.695312 163.902344 377.246094 C 165.53125 379.796875 167.296875 382.246094 169.203125 384.597656 C 171.105469 386.949219 173.136719 389.1875 175.292969 391.308594 C 177.449219 393.433594 179.714844 395.429688 182.09375 397.296875 C 184.472656 399.167969 186.949219 400.898438 189.523438 402.488281 C 192.097656 404.078125 194.753906 405.519531 197.488281 406.8125 C 200.222656 408.105469 203.023438 409.238281 205.886719 410.214844 Z M 179.765625 486.695312 " fill-opacity="1" fill-rule="nonzero"/><path fill="#5ce054" d="M 79.851562 388.261719 C 75.480469 376.0625 72.617188 363.519531 71.265625 350.632812 L 151.636719 342.1875 C 152.3125 348.628906 153.746094 354.902344 155.929688 361 Z M 79.851562 388.261719 " fill-opacity="1" fill-rule="nonzero"/><path fill="#fd4511" d="M 71.265625 350.632812 C 70.421875 342.605469 70.179688 334.554688 70.542969 326.488281 C 70.902344 318.421875 71.863281 310.425781 73.425781 302.503906 C 74.984375 294.582031 77.128906 286.820312 79.851562 279.21875 C 82.578125 271.617188 85.851562 264.261719 89.679688 257.148438 L 160.84375 295.445312 C 158.929688 299 157.292969 302.679688 155.929688 306.480469 C 154.566406 310.28125 153.496094 314.160156 152.714844 318.121094 C 151.9375 322.082031 151.457031 326.082031 151.273438 330.113281 C 151.09375 334.148438 151.214844 338.171875 151.636719 342.1875 Z M 71.265625 350.632812 " fill-opacity="1" fill-rule="nonzero"/><path fill="#b5ec40" d="M 89.679688 257.148438 C 93.503906 250.039062 97.839844 243.253906 102.683594 236.792969 C 107.527344 230.332031 112.824219 224.265625 118.578125 218.601562 C 124.328125 212.933594 130.472656 207.726562 137.003906 202.980469 C 143.535156 198.234375 150.386719 194 157.554688 190.28125 L 194.78125 262.011719 C 191.195312 263.871094 187.773438 265.988281 184.503906 268.359375 C 181.238281 270.734375 178.167969 273.335938 175.292969 276.167969 C 172.414062 279.003906 169.765625 282.035156 167.34375 285.265625 C 164.921875 288.496094 162.753906 291.890625 160.84375 295.445312 Z M 89.679688 257.148438 " fill-opacity="1" fill-rule="nonzero"/><path fill="#134582" d="M 157.554688 190.28125 C 163.28125 187.308594 169.167969 184.6875 175.210938 182.417969 C 181.253906 180.152344 187.410156 178.25 193.679688 176.722656 C 199.949219 175.191406 206.289062 174.039062 212.699219 173.269531 C 219.105469 172.496094 225.535156 172.113281 231.992188 172.113281 L 232 252.925781 C 225.523438 252.925781 219.136719 253.695312 212.84375 255.230469 C 206.550781 256.765625 200.53125 259.027344 194.78125 262.011719 Z M 157.554688 190.28125 " fill-opacity="1" fill-rule="nonzero"/><g fill="#f6f6f4" fill-opacity="1"><g transform="translate(299.964832, 269.870428)"><g><path d="M 1.4375 -13.109375 L 1.515625 -13.3125 C 1.703125 -13.65625 1.9375 -13.984375 2.21875 -14.296875 C 2.507812 -14.617188 2.859375 -14.898438 3.265625 -15.140625 C 3.679688 -15.378906 4.148438 -15.570312 4.671875 -15.71875 C 5.191406 -15.875 5.78125 -15.953125 6.4375 -15.953125 C 8.113281 -15.953125 9.316406 -15.582031 10.046875 -14.84375 C 10.785156 -14.101562 11.15625 -13.097656 11.15625 -11.828125 C 11.15625 -11.078125 10.972656 -10.390625 10.609375 -9.765625 C 10.253906 -9.140625 9.8125 -8.46875 9.28125 -7.75 C 8.832031 -7.144531 8.304688 -6.5 7.703125 -5.8125 C 7.109375 -5.125 6.539062 -4.46875 6 -3.84375 C 5.46875 -3.21875 5.015625 -2.664062 4.640625 -2.1875 C 4.265625 -1.71875 4.078125 -1.394531 4.078125 -1.21875 L 4.125 -1.15625 L 6 -1.15625 C 6.957031 -1.15625 7.722656 -1.164062 8.296875 -1.1875 C 8.878906 -1.207031 9.328125 -1.28125 9.640625 -1.40625 C 9.960938 -1.539062 10.195312 -1.734375 10.34375 -1.984375 C 10.5 -2.234375 10.632812 -2.585938 10.75 -3.046875 L 10.875 -3.1875 L 11.515625 -3.1875 L 11.09375 -0.09375 L 10.875 0.140625 C 10.757812 0.140625 10.488281 0.128906 10.0625 0.109375 C 9.644531 0.0976562 9.179688 0.0820312 8.671875 0.0625 C 8.171875 0.0507812 7.679688 0.0351562 7.203125 0.015625 C 6.734375 0.00390625 6.394531 0 6.1875 0 L 3.8125 0 C 3.457031 0 3.0625 0.015625 2.625 0.046875 C 2.1875 0.078125 1.757812 0.109375 1.34375 0.140625 L 1.109375 -0.125 L 1.109375 -0.671875 C 1.453125 -1.117188 1.925781 -1.679688 2.53125 -2.359375 C 3.132812 -3.046875 3.769531 -3.765625 4.4375 -4.515625 C 5.113281 -5.273438 5.78125 -6.039062 6.4375 -6.8125 C 7.09375 -7.59375 7.648438 -8.304688 8.109375 -8.953125 C 8.472656 -9.460938 8.78125 -9.972656 9.03125 -10.484375 C 9.28125 -10.992188 9.40625 -11.539062 9.40625 -12.125 C 9.40625 -12.914062 9.101562 -13.539062 8.5 -14 C 7.90625 -14.457031 7.164062 -14.6875 6.28125 -14.6875 C 5.226562 -14.6875 4.375 -14.414062 3.71875 -13.875 C 3.0625 -13.34375 2.703125 -12.539062 2.640625 -11.46875 L 2.546875 -11.375 L 1.734375 -11.375 Z M 1.4375 -13.109375 "/></g></g></g><g fill="#f6f6f4" fill-opacity="1"><g transform="translate(312.828861, 269.870428)"><g><path d="M 6.625 -15.953125 C 7.257812 -15.953125 7.859375 -15.867188 8.421875 -15.703125 C 8.984375 -15.535156 9.46875 -15.285156 9.875 -14.953125 C 10.28125 -14.617188 10.597656 -14.203125 10.828125 -13.703125 C 11.066406 -13.203125 11.1875 -12.632812 11.1875 -12 C 11.1875 -11.519531 11.125 -11.101562 11 -10.75 C 10.882812 -10.394531 10.722656 -10.09375 10.515625 -9.84375 C 10.316406 -9.601562 10.09375 -9.398438 9.84375 -9.234375 C 9.601562 -9.078125 9.351562 -8.953125 9.09375 -8.859375 L 9.09375 -8.765625 C 9.601562 -8.597656 10.039062 -8.363281 10.40625 -8.0625 C 10.78125 -7.757812 11.082031 -7.414062 11.3125 -7.03125 C 11.539062 -6.644531 11.710938 -6.226562 11.828125 -5.78125 C 11.941406 -5.332031 12 -4.894531 12 -4.46875 C 12 -3.882812 11.910156 -3.304688 11.734375 -2.734375 C 11.554688 -2.171875 11.257812 -1.671875 10.84375 -1.234375 C 10.425781 -0.796875 9.878906 -0.4375 9.203125 -0.15625 C 8.523438 0.125 7.679688 0.265625 6.671875 0.265625 C 5.679688 0.265625 4.84375 0.128906 4.15625 -0.140625 C 3.476562 -0.410156 2.9375 -0.769531 2.53125 -1.21875 C 2.125 -1.664062 1.832031 -2.171875 1.65625 -2.734375 C 1.476562 -3.304688 1.390625 -3.882812 1.390625 -4.46875 C 1.390625 -5.4375 1.625 -6.304688 2.09375 -7.078125 C 2.570312 -7.859375 3.304688 -8.421875 4.296875 -8.765625 L 4.296875 -8.859375 C 3.734375 -9.035156 3.242188 -9.367188 2.828125 -9.859375 C 2.410156 -10.359375 2.203125 -11.082031 2.203125 -12.03125 C 2.203125 -13.289062 2.609375 -14.257812 3.421875 -14.9375 C 4.242188 -15.613281 5.3125 -15.953125 6.625 -15.953125 Z M 6.640625 -8.046875 C 6.003906 -8.046875 5.46875 -7.921875 5.03125 -7.671875 C 4.59375 -7.429688 4.238281 -7.128906 3.96875 -6.765625 C 3.707031 -6.410156 3.515625 -6.015625 3.390625 -5.578125 C 3.273438 -5.148438 3.21875 -4.738281 3.21875 -4.34375 C 3.21875 -4.007812 3.273438 -3.644531 3.390625 -3.25 C 3.515625 -2.851562 3.710938 -2.488281 3.984375 -2.15625 C 4.253906 -1.820312 4.609375 -1.546875 5.046875 -1.328125 C 5.492188 -1.117188 6.046875 -1.015625 6.703125 -1.015625 C 7.359375 -1.015625 7.90625 -1.113281 8.34375 -1.3125 C 8.78125 -1.507812 9.132812 -1.765625 9.40625 -2.078125 C 9.675781 -2.390625 9.867188 -2.738281 9.984375 -3.125 C 10.109375 -3.519531 10.171875 -3.910156 10.171875 -4.296875 C 10.171875 -4.722656 10.109375 -5.15625 9.984375 -5.59375 C 9.859375 -6.039062 9.65625 -6.441406 9.375 -6.796875 C 9.09375 -7.160156 8.726562 -7.457031 8.28125 -7.6875 C 7.832031 -7.925781 7.285156 -8.046875 6.640625 -8.046875 Z M 9.359375 -12.09375 C 9.359375 -13.007812 9.125 -13.671875 8.65625 -14.078125 C 8.195312 -14.484375 7.523438 -14.6875 6.640625 -14.6875 C 5.710938 -14.6875 5.046875 -14.46875 4.640625 -14.03125 C 4.234375 -13.59375 4.03125 -12.960938 4.03125 -12.140625 C 4.03125 -11.179688 4.269531 -10.453125 4.75 -9.953125 C 5.226562 -9.460938 5.878906 -9.21875 6.703125 -9.21875 C 7.078125 -9.21875 7.425781 -9.289062 7.75 -9.4375 C 8.082031 -9.59375 8.367188 -9.800781 8.609375 -10.0625 C 8.847656 -10.332031 9.03125 -10.640625 9.15625 -10.984375 C 9.289062 -11.328125 9.359375 -11.695312 9.359375 -12.09375 Z M 9.359375 -12.09375 "/></g></g></g><g fill="#f6f6f4" fill-opacity="1"><g transform="translate(326.220885, 269.870428)"><g><path d="M 2.96875 -0.546875 C 3.414062 -1.078125 3.832031 -1.582031 4.21875 -2.0625 C 4.601562 -2.539062 4.984375 -3.019531 5.359375 -3.5 C 5.734375 -3.976562 6.109375 -4.472656 6.484375 -4.984375 C 6.867188 -5.503906 7.273438 -6.066406 7.703125 -6.671875 L 10.578125 -10.625 C 11.171875 -11.445312 11.785156 -12.304688 12.421875 -13.203125 C 13.066406 -14.097656 13.671875 -15.050781 14.234375 -16.0625 L 14.359375 -16.15625 L 16.171875 -16.15625 L 16.15625 -16.0625 C 15.269531 -15.082031 14.488281 -14.128906 13.8125 -13.203125 C 13.132812 -12.285156 12.503906 -11.425781 11.921875 -10.625 L 9.046875 -6.671875 C 8.617188 -6.066406 8.21875 -5.503906 7.84375 -4.984375 C 7.476562 -4.472656 7.128906 -3.976562 6.796875 -3.5 C 6.472656 -3.019531 6.15625 -2.539062 5.84375 -2.0625 C 5.53125 -1.582031 5.210938 -1.078125 4.890625 -0.546875 L 4.78125 -0.453125 L 2.953125 -0.453125 Z M 14.296875 -8.5625 C 14.859375 -8.5625 15.351562 -8.441406 15.78125 -8.203125 C 16.21875 -7.960938 16.585938 -7.640625 16.890625 -7.234375 C 17.203125 -6.835938 17.429688 -6.375 17.578125 -5.84375 C 17.734375 -5.320312 17.8125 -4.765625 17.8125 -4.171875 C 17.8125 -3.597656 17.734375 -3.039062 17.578125 -2.5 C 17.429688 -1.96875 17.203125 -1.5 16.890625 -1.09375 C 16.585938 -0.6875 16.210938 -0.359375 15.765625 -0.109375 C 15.316406 0.140625 14.804688 0.265625 14.234375 0.265625 C 13.671875 0.265625 13.175781 0.148438 12.75 -0.078125 C 12.332031 -0.316406 11.984375 -0.628906 11.703125 -1.015625 C 11.421875 -1.410156 11.207031 -1.867188 11.0625 -2.390625 C 10.914062 -2.921875 10.84375 -3.484375 10.84375 -4.078125 C 10.84375 -4.703125 10.921875 -5.285156 11.078125 -5.828125 C 11.242188 -6.367188 11.472656 -6.84375 11.765625 -7.25 C 12.066406 -7.664062 12.425781 -7.988281 12.84375 -8.21875 C 13.269531 -8.445312 13.753906 -8.5625 14.296875 -8.5625 Z M 14.296875 -0.640625 C 14.671875 -0.640625 15 -0.734375 15.28125 -0.921875 C 15.570312 -1.109375 15.816406 -1.359375 16.015625 -1.671875 C 16.210938 -1.992188 16.363281 -2.367188 16.46875 -2.796875 C 16.570312 -3.234375 16.625 -3.691406 16.625 -4.171875 C 16.625 -4.671875 16.566406 -5.128906 16.453125 -5.546875 C 16.347656 -5.972656 16.195312 -6.34375 16 -6.65625 C 15.800781 -6.96875 15.550781 -7.210938 15.25 -7.390625 C 14.957031 -7.566406 14.625 -7.65625 14.25 -7.65625 C 13.882812 -7.65625 13.566406 -7.566406 13.296875 -7.390625 C 13.023438 -7.210938 12.789062 -6.96875 12.59375 -6.65625 C 12.40625 -6.34375 12.265625 -5.972656 12.171875 -5.546875 C 12.078125 -5.128906 12.03125 -4.671875 12.03125 -4.171875 C 12.03125 -3.066406 12.238281 -2.203125 12.65625 -1.578125 C 13.082031 -0.953125 13.628906 -0.640625 14.296875 -0.640625 Z M 4.53125 -15.953125 C 5.082031 -15.953125 5.570312 -15.832031 6 -15.59375 C 6.425781 -15.351562 6.789062 -15.035156 7.09375 -14.640625 C 7.40625 -14.242188 7.632812 -13.78125 7.78125 -13.25 C 7.9375 -12.71875 8.015625 -12.15625 8.015625 -11.5625 C 8.015625 -10.988281 7.9375 -10.429688 7.78125 -9.890625 C 7.632812 -9.359375 7.410156 -8.890625 7.109375 -8.484375 C 6.816406 -8.078125 6.445312 -7.75 6 -7.5 C 5.550781 -7.25 5.039062 -7.125 4.46875 -7.125 C 3.90625 -7.125 3.410156 -7.238281 2.984375 -7.46875 C 2.566406 -7.707031 2.210938 -8.019531 1.921875 -8.40625 C 1.628906 -8.800781 1.410156 -9.257812 1.265625 -9.78125 C 1.128906 -10.3125 1.0625 -10.875 1.0625 -11.46875 C 1.0625 -12.09375 1.140625 -12.675781 1.296875 -13.21875 C 1.453125 -13.769531 1.675781 -14.25 1.96875 -14.65625 C 2.269531 -15.0625 2.632812 -15.378906 3.0625 -15.609375 C 3.5 -15.835938 3.988281 -15.953125 4.53125 -15.953125 Z M 4.53125 -8.046875 C 4.90625 -8.046875 5.234375 -8.132812 5.515625 -8.3125 C 5.804688 -8.5 6.046875 -8.75 6.234375 -9.0625 C 6.429688 -9.382812 6.582031 -9.757812 6.6875 -10.1875 C 6.789062 -10.625 6.84375 -11.082031 6.84375 -11.5625 C 6.84375 -12.0625 6.785156 -12.519531 6.671875 -12.9375 C 6.554688 -13.363281 6.398438 -13.734375 6.203125 -14.046875 C 6.003906 -14.359375 5.753906 -14.601562 5.453125 -14.78125 C 5.160156 -14.957031 4.835938 -15.046875 4.484375 -15.046875 C 4.117188 -15.046875 3.796875 -14.957031 3.515625 -14.78125 C 3.234375 -14.601562 2.992188 -14.359375 2.796875 -14.046875 C 2.609375 -13.734375 2.46875 -13.363281 2.375 -12.9375 C 2.28125 -12.519531 2.234375 -12.0625 2.234375 -11.5625 C 2.234375 -10.457031 2.445312 -9.59375 2.875 -8.96875 C 3.3125 -8.351562 3.863281 -8.046875 4.53125 -8.046875 Z M 4.53125 -8.046875 "/></g></g></g><g fill="#f6f6f4" fill-opacity="1"><g transform="translate(223.425211, 452.559505)"><g><path d="M 1.015625 -13.296875 L 1.078125 -13.4375 C 1.765625 -13.769531 2.421875 -14.125 3.046875 -14.5 C 3.671875 -14.882812 4.285156 -15.351562 4.890625 -15.90625 L 5.0625 -15.90625 L 5.59375 -15.703125 C 5.570312 -15.566406 5.554688 -15.414062 5.546875 -15.25 C 5.546875 -15.082031 5.539062 -14.910156 5.53125 -14.734375 C 5.519531 -14.554688 5.507812 -14.382812 5.5 -14.21875 C 5.5 -14.0625 5.5 -13.9375 5.5 -13.84375 C 5.476562 -13.59375 5.460938 -13.351562 5.453125 -13.125 C 5.453125 -12.90625 5.445312 -12.640625 5.4375 -12.328125 C 5.425781 -12.023438 5.421875 -11.65625 5.421875 -11.21875 C 5.421875 -10.789062 5.421875 -10.242188 5.421875 -9.578125 L 5.421875 -6.1875 C 5.421875 -5.519531 5.421875 -4.972656 5.421875 -4.546875 C 5.421875 -4.117188 5.425781 -3.757812 5.4375 -3.46875 C 5.445312 -3.1875 5.453125 -2.929688 5.453125 -2.703125 C 5.460938 -2.484375 5.484375 -2.238281 5.515625 -1.96875 C 5.546875 -1.632812 5.617188 -1.378906 5.734375 -1.203125 C 5.847656 -1.035156 5.96875 -0.898438 6.09375 -0.796875 C 6.238281 -0.679688 6.460938 -0.59375 6.765625 -0.53125 C 7.066406 -0.46875 7.335938 -0.4375 7.578125 -0.4375 L 7.703125 -0.3125 L 7.75 0 L 7.703125 0.09375 C 7.585938 0.09375 7.414062 0.0820312 7.1875 0.0625 C 6.96875 0.0507812 6.726562 0.0390625 6.46875 0.03125 C 6.21875 0.03125 5.976562 0.0234375 5.75 0.015625 C 5.53125 0.00390625 5.363281 0 5.25 0 L 3.890625 0 C 3.773438 0 3.601562 0.00390625 3.375 0.015625 C 3.15625 0.0234375 2.914062 0.03125 2.65625 0.03125 C 2.40625 0.0390625 2.164062 0.0507812 1.9375 0.0625 C 1.71875 0.0820312 1.550781 0.09375 1.4375 0.09375 L 1.390625 0 L 1.4375 -0.34375 L 1.515625 -0.4375 C 1.765625 -0.4375 2.050781 -0.460938 2.375 -0.515625 C 2.707031 -0.566406 2.941406 -0.660156 3.078125 -0.796875 C 3.203125 -0.898438 3.316406 -1.039062 3.421875 -1.21875 C 3.535156 -1.394531 3.609375 -1.644531 3.640625 -1.96875 C 3.660156 -2.175781 3.675781 -2.378906 3.6875 -2.578125 C 3.707031 -2.773438 3.722656 -3.003906 3.734375 -3.265625 C 3.742188 -3.535156 3.75 -3.851562 3.75 -4.21875 C 3.75 -4.59375 3.75 -5.054688 3.75 -5.609375 L 3.75 -9.53125 C 3.75 -10.1875 3.75 -10.71875 3.75 -11.125 C 3.75 -11.53125 3.742188 -11.867188 3.734375 -12.140625 C 3.722656 -12.410156 3.707031 -12.644531 3.6875 -12.84375 C 3.675781 -13.050781 3.660156 -13.28125 3.640625 -13.53125 L 1.078125 -12.890625 L 1.015625 -12.984375 Z M 1.015625 -13.296875 "/></g></g></g><g fill="#f6f6f4" fill-opacity="1"><g transform="translate(231.921224, 452.559505)"><g><path d="M 9.84375 -4.828125 C 9.84375 -5.492188 9.726562 -6.039062 9.5 -6.46875 C 9.28125 -6.894531 8.992188 -7.226562 8.640625 -7.46875 C 8.285156 -7.71875 7.878906 -7.882812 7.421875 -7.96875 C 6.972656 -8.0625 6.523438 -8.109375 6.078125 -8.109375 C 5.492188 -8.109375 4.921875 -8.046875 4.359375 -7.921875 C 3.804688 -7.796875 3.296875 -7.59375 2.828125 -7.3125 L 2.59375 -7.3125 L 1.9375 -7.6875 L 1.890625 -7.84375 L 2.65625 -15.5 L 2.8125 -15.703125 L 4.96875 -15.703125 C 5.394531 -15.703125 6.03125 -15.710938 6.875 -15.734375 C 7.726562 -15.753906 8.707031 -15.804688 9.8125 -15.890625 L 10.03125 -15.703125 L 10.390625 -13.109375 L 10.25 -12.9375 L 9.8125 -12.9375 L 9.671875 -13.0625 C 9.609375 -13.40625 9.523438 -13.675781 9.421875 -13.875 C 9.328125 -14.082031 9.144531 -14.234375 8.875 -14.328125 C 8.601562 -14.421875 8.210938 -14.476562 7.703125 -14.5 C 7.191406 -14.53125 6.492188 -14.546875 5.609375 -14.546875 L 4.171875 -14.546875 C 4.078125 -14.546875 4.03125 -14.503906 4.03125 -14.421875 L 3.546875 -9.046875 C 3.960938 -9.203125 4.421875 -9.320312 4.921875 -9.40625 C 5.429688 -9.488281 5.96875 -9.53125 6.53125 -9.53125 C 7.1875 -9.53125 7.816406 -9.453125 8.421875 -9.296875 C 9.035156 -9.148438 9.578125 -8.90625 10.046875 -8.5625 C 10.515625 -8.21875 10.890625 -7.753906 11.171875 -7.171875 C 11.453125 -6.597656 11.59375 -5.878906 11.59375 -5.015625 C 11.59375 -4.171875 11.445312 -3.421875 11.15625 -2.765625 C 10.875 -2.109375 10.472656 -1.554688 9.953125 -1.109375 C 9.429688 -0.660156 8.8125 -0.316406 8.09375 -0.078125 C 7.375 0.148438 6.582031 0.265625 5.71875 0.265625 C 4.59375 0.265625 3.679688 0.0859375 2.984375 -0.265625 C 2.285156 -0.617188 1.722656 -1.09375 1.296875 -1.6875 L 1.265625 -1.921875 L 1.53125 -3.625 L 2.40625 -3.625 L 2.46875 -3.53125 C 2.5 -2.8125 2.804688 -2.210938 3.390625 -1.734375 C 3.972656 -1.253906 4.828125 -1.015625 5.953125 -1.015625 C 6.671875 -1.015625 7.273438 -1.113281 7.765625 -1.3125 C 8.265625 -1.519531 8.664062 -1.800781 8.96875 -2.15625 C 9.28125 -2.507812 9.503906 -2.914062 9.640625 -3.375 C 9.773438 -3.84375 9.84375 -4.328125 9.84375 -4.828125 Z M 9.84375 -4.828125 "/></g></g></g><g fill="#f6f6f4" fill-opacity="1"><g transform="translate(244.66525, 452.559505)"><g><path d="M 2.96875 -0.546875 C 3.414062 -1.078125 3.832031 -1.582031 4.21875 -2.0625 C 4.601562 -2.539062 4.984375 -3.019531 5.359375 -3.5 C 5.734375 -3.976562 6.109375 -4.472656 6.484375 -4.984375 C 6.867188 -5.503906 7.273438 -6.066406 7.703125 -6.671875 L 10.578125 -10.625 C 11.171875 -11.445312 11.785156 -12.304688 12.421875 -13.203125 C 13.066406 -14.097656 13.671875 -15.050781 14.234375 -16.0625 L 14.359375 -16.15625 L 16.171875 -16.15625 L 16.15625 -16.0625 C 15.269531 -15.082031 14.488281 -14.128906 13.8125 -13.203125 C 13.132812 -12.285156 12.503906 -11.425781 11.921875 -10.625 L 9.046875 -6.671875 C 8.617188 -6.066406 8.21875 -5.503906 7.84375 -4.984375 C 7.476562 -4.472656 7.128906 -3.976562 6.796875 -3.5 C 6.472656 -3.019531 6.15625 -2.539062 5.84375 -2.0625 C 5.53125 -1.582031 5.210938 -1.078125 4.890625 -0.546875 L 4.78125 -0.453125 L 2.953125 -0.453125 Z M 14.296875 -8.5625 C 14.859375 -8.5625 15.351562 -8.441406 15.78125 -8.203125 C 16.21875 -7.960938 16.585938 -7.640625 16.890625 -7.234375 C 17.203125 -6.835938 17.429688 -6.375 17.578125 -5.84375 C 17.734375 -5.320312 17.8125 -4.765625 17.8125 -4.171875 C 17.8125 -3.597656 17.734375 -3.039062 17.578125 -2.5 C 17.429688 -1.96875 17.203125 -1.5 16.890625 -1.09375 C 16.585938 -0.6875 16.210938 -0.359375 15.765625 -0.109375 C 15.316406 0.140625 14.804688 0.265625 14.234375 0.265625 C 13.671875 0.265625 13.175781 0.148438 12.75 -0.078125 C 12.332031 -0.316406 11.984375 -0.628906 11.703125 -1.015625 C 11.421875 -1.410156 11.207031 -1.867188 11.0625 -2.390625 C 10.914062 -2.921875 10.84375 -3.484375 10.84375 -4.078125 C 10.84375 -4.703125 10.921875 -5.285156 11.078125 -5.828125 C 11.242188 -6.367188 11.472656 -6.84375 11.765625 -7.25 C 12.066406 -7.664062 12.425781 -7.988281 12.84375 -8.21875 C 13.269531 -8.445312 13.753906 -8.5625 14.296875 -8.5625 Z M 14.296875 -0.640625 C 14.671875 -0.640625 15 -0.734375 15.28125 -0.921875 C 15.570312 -1.109375 15.816406 -1.359375 16.015625 -1.671875 C 16.210938 -1.992188 16.363281 -2.367188 16.46875 -2.796875 C 16.570312 -3.234375 16.625 -3.691406 16.625 -4.171875 C 16.625 -4.671875 16.566406 -5.128906 16.453125 -5.546875 C 16.347656 -5.972656 16.195312 -6.34375 16 -6.65625 C 15.800781 -6.96875 15.550781 -7.210938 15.25 -7.390625 C 14.957031 -7.566406 14.625 -7.65625 14.25 -7.65625 C 13.882812 -7.65625 13.566406 -7.566406 13.296875 -7.390625 C 13.023438 -7.210938 12.789062 -6.96875 12.59375 -6.65625 C 12.40625 -6.34375 12.265625 -5.972656 12.171875 -5.546875 C 12.078125 -5.128906 12.03125 -4.671875 12.03125 -4.171875 C 12.03125 -3.066406 12.238281 -2.203125 12.65625 -1.578125 C 13.082031 -0.953125 13.628906 -0.640625 14.296875 -0.640625 Z M 4.53125 -15.953125 C 5.082031 -15.953125 5.570312 -15.832031 6 -15.59375 C 6.425781 -15.351562 6.789062 -15.035156 7.09375 -14.640625 C 7.40625 -14.242188 7.632812 -13.78125 7.78125 -13.25 C 7.9375 -12.71875 8.015625 -12.15625 8.015625 -11.5625 C 8.015625 -10.988281 7.9375 -10.429688 7.78125 -9.890625 C 7.632812 -9.359375 7.410156 -8.890625 7.109375 -8.484375 C 6.816406 -8.078125 6.445312 -7.75 6 -7.5 C 5.550781 -7.25 5.039062 -7.125 4.46875 -7.125 C 3.90625 -7.125 3.410156 -7.238281 2.984375 -7.46875 C 2.566406 -7.707031 2.210938 -8.019531 1.921875 -8.40625 C 1.628906 -8.800781 1.410156 -9.257812 1.265625 -9.78125 C 1.128906 -10.3125 1.0625 -10.875 1.0625 -11.46875 C 1.0625 -12.09375 1.140625 -12.675781 1.296875 -13.21875 C 1.453125 -13.769531 1.675781 -14.25 1.96875 -14.65625 C 2.269531 -15.0625 2.632812 -15.378906 3.0625 -15.609375 C 3.5 -15.835938 3.988281 -15.953125 4.53125 -15.953125 Z M 4.53125 -8.046875 C 4.90625 -8.046875 5.234375 -8.132812 5.515625 -8.3125 C 5.804688 -8.5 6.046875 -8.75 6.234375 -9.0625 C 6.429688 -9.382812 6.582031 -9.757812 6.6875 -10.1875 C 6.789062 -10.625 6.84375 -11.082031 6.84375 -11.5625 C 6.84375 -12.0625 6.785156 -12.519531 6.671875 -12.9375 C 6.554688 -13.363281 6.398438 -13.734375 6.203125 -14.046875 C 6.003906 -14.359375 5.753906 -14.601562 5.453125 -14.78125 C 5.160156 -14.957031 4.835938 -15.046875 4.484375 -15.046875 C 4.117188 -15.046875 3.796875 -14.957031 3.515625 -14.78125 C 3.234375 -14.601562 2.992188 -14.359375 2.796875 -14.046875 C 2.609375 -13.734375 2.46875 -13.363281 2.375 -12.9375 C 2.28125 -12.519531 2.234375 -12.0625 2.234375 -11.5625 C 2.234375 -10.457031 2.445312 -9.59375 2.875 -8.96875 C 3.3125 -8.351562 3.863281 -8.046875 4.53125 -8.046875 Z M 4.53125 -8.046875 "/></g></g></g><g fill="#f6f6f4" fill-opacity="1"><g transform="translate(326.249986, 381.259487)"><g><path d="M 1.015625 -13.296875 L 1.078125 -13.4375 C 1.765625 -13.769531 2.421875 -14.125 3.046875 -14.5 C 3.671875 -14.882812 4.285156 -15.351562 4.890625 -15.90625 L 5.0625 -15.90625 L 5.59375 -15.703125 C 5.570312 -15.566406 5.554688 -15.414062 5.546875 -15.25 C 5.546875 -15.082031 5.539062 -14.910156 5.53125 -14.734375 C 5.519531 -14.554688 5.507812 -14.382812 5.5 -14.21875 C 5.5 -14.0625 5.5 -13.9375 5.5 -13.84375 C 5.476562 -13.59375 5.460938 -13.351562 5.453125 -13.125 C 5.453125 -12.90625 5.445312 -12.640625 5.4375 -12.328125 C 5.425781 -12.023438 5.421875 -11.65625 5.421875 -11.21875 C 5.421875 -10.789062 5.421875 -10.242188 5.421875 -9.578125 L 5.421875 -6.1875 C 5.421875 -5.519531 5.421875 -4.972656 5.421875 -4.546875 C 5.421875 -4.117188 5.425781 -3.757812 5.4375 -3.46875 C 5.445312 -3.1875 5.453125 -2.929688 5.453125 -2.703125 C 5.460938 -2.484375 5.484375 -2.238281 5.515625 -1.96875 C 5.546875 -1.632812 5.617188 -1.378906 5.734375 -1.203125 C 5.847656 -1.035156 5.96875 -0.898438 6.09375 -0.796875 C 6.238281 -0.679688 6.460938 -0.59375 6.765625 -0.53125 C 7.066406 -0.46875 7.335938 -0.4375 7.578125 -0.4375 L 7.703125 -0.3125 L 7.75 0 L 7.703125 0.09375 C 7.585938 0.09375 7.414062 0.0820312 7.1875 0.0625 C 6.96875 0.0507812 6.726562 0.0390625 6.46875 0.03125 C 6.21875 0.03125 5.976562 0.0234375 5.75 0.015625 C 5.53125 0.00390625 5.363281 0 5.25 0 L 3.890625 0 C 3.773438 0 3.601562 0.00390625 3.375 0.015625 C 3.15625 0.0234375 2.914062 0.03125 2.65625 0.03125 C 2.40625 0.0390625 2.164062 0.0507812 1.9375 0.0625 C 1.71875 0.0820312 1.550781 0.09375 1.4375 0.09375 L 1.390625 0 L 1.4375 -0.34375 L 1.515625 -0.4375 C 1.765625 -0.4375 2.050781 -0.460938 2.375 -0.515625 C 2.707031 -0.566406 2.941406 -0.660156 3.078125 -0.796875 C 3.203125 -0.898438 3.316406 -1.039062 3.421875 -1.21875 C 3.535156 -1.394531 3.609375 -1.644531 3.640625 -1.96875 C 3.660156 -2.175781 3.675781 -2.378906 3.6875 -2.578125 C 3.707031 -2.773438 3.722656 -3.003906 3.734375 -3.265625 C 3.742188 -3.535156 3.75 -3.851562 3.75 -4.21875 C 3.75 -4.59375 3.75 -5.054688 3.75 -5.609375 L 3.75 -9.53125 C 3.75 -10.1875 3.75 -10.71875 3.75 -11.125 C 3.75 -11.53125 3.742188 -11.867188 3.734375 -12.140625 C 3.722656 -12.410156 3.707031 -12.644531 3.6875 -12.84375 C 3.675781 -13.050781 3.660156 -13.28125 3.640625 -13.53125 L 1.078125 -12.890625 L 1.015625 -12.984375 Z M 1.015625 -13.296875 "/></g></g></g><g fill="#f6f6f4" fill-opacity="1"><g transform="translate(334.745999, 381.259487)"><g><path d="M 9.84375 -4.828125 C 9.84375 -5.492188 9.726562 -6.039062 9.5 -6.46875 C 9.28125 -6.894531 8.992188 -7.226562 8.640625 -7.46875 C 8.285156 -7.71875 7.878906 -7.882812 7.421875 -7.96875 C 6.972656 -8.0625 6.523438 -8.109375 6.078125 -8.109375 C 5.492188 -8.109375 4.921875 -8.046875 4.359375 -7.921875 C 3.804688 -7.796875 3.296875 -7.59375 2.828125 -7.3125 L 2.59375 -7.3125 L 1.9375 -7.6875 L 1.890625 -7.84375 L 2.65625 -15.5 L 2.8125 -15.703125 L 4.96875 -15.703125 C 5.394531 -15.703125 6.03125 -15.710938 6.875 -15.734375 C 7.726562 -15.753906 8.707031 -15.804688 9.8125 -15.890625 L 10.03125 -15.703125 L 10.390625 -13.109375 L 10.25 -12.9375 L 9.8125 -12.9375 L 9.671875 -13.0625 C 9.609375 -13.40625 9.523438 -13.675781 9.421875 -13.875 C 9.328125 -14.082031 9.144531 -14.234375 8.875 -14.328125 C 8.601562 -14.421875 8.210938 -14.476562 7.703125 -14.5 C 7.191406 -14.53125 6.492188 -14.546875 5.609375 -14.546875 L 4.171875 -14.546875 C 4.078125 -14.546875 4.03125 -14.503906 4.03125 -14.421875 L 3.546875 -9.046875 C 3.960938 -9.203125 4.421875 -9.320312 4.921875 -9.40625 C 5.429688 -9.488281 5.96875 -9.53125 6.53125 -9.53125 C 7.1875 -9.53125 7.816406 -9.453125 8.421875 -9.296875 C 9.035156 -9.148438 9.578125 -8.90625 10.046875 -8.5625 C 10.515625 -8.21875 10.890625 -7.753906 11.171875 -7.171875 C 11.453125 -6.597656 11.59375 -5.878906 11.59375 -5.015625 C 11.59375 -4.171875 11.445312 -3.421875 11.15625 -2.765625 C 10.875 -2.109375 10.472656 -1.554688 9.953125 -1.109375 C 9.429688 -0.660156 8.8125 -0.316406 8.09375 -0.078125 C 7.375 0.148438 6.582031 0.265625 5.71875 0.265625 C 4.59375 0.265625 3.679688 0.0859375 2.984375 -0.265625 C 2.285156 -0.617188 1.722656 -1.09375 1.296875 -1.6875 L 1.265625 -1.921875 L 1.53125 -3.625 L 2.40625 -3.625 L 2.46875 -3.53125 C 2.5 -2.8125 2.804688 -2.210938 3.390625 -1.734375 C 3.972656 -1.253906 4.828125 -1.015625 5.953125 -1.015625 C 6.671875 -1.015625 7.273438 -1.113281 7.765625 -1.3125 C 8.265625 -1.519531 8.664062 -1.800781 8.96875 -2.15625 C 9.28125 -2.507812 9.503906 -2.914062 9.640625 -3.375 C 9.773438 -3.84375 9.84375 -4.328125 9.84375 -4.828125 Z M 9.84375 -4.828125 "/></g></g></g><g fill="#f6f6f4" fill-opacity="1"><g transform="translate(347.490025, 381.259487)"><g><path d="M 2.96875 -0.546875 C 3.414062 -1.078125 3.832031 -1.582031 4.21875 -2.0625 C 4.601562 -2.539062 4.984375 -3.019531 5.359375 -3.5 C 5.734375 -3.976562 6.109375 -4.472656 6.484375 -4.984375 C 6.867188 -5.503906 7.273438 -6.066406 7.703125 -6.671875 L 10.578125 -10.625 C 11.171875 -11.445312 11.785156 -12.304688 12.421875 -13.203125 C 13.066406 -14.097656 13.671875 -15.050781 14.234375 -16.0625 L 14.359375 -16.15625 L 16.171875 -16.15625 L 16.15625 -16.0625 C 15.269531 -15.082031 14.488281 -14.128906 13.8125 -13.203125 C 13.132812 -12.285156 12.503906 -11.425781 11.921875 -10.625 L 9.046875 -6.671875 C 8.617188 -6.066406 8.21875 -5.503906 7.84375 -4.984375 C 7.476562 -4.472656 7.128906 -3.976562 6.796875 -3.5 C 6.472656 -3.019531 6.15625 -2.539062 5.84375 -2.0625 C 5.53125 -1.582031 5.210938 -1.078125 4.890625 -0.546875 L 4.78125 -0.453125 L 2.953125 -0.453125 Z M 14.296875 -8.5625 C 14.859375 -8.5625 15.351562 -8.441406 15.78125 -8.203125 C 16.21875 -7.960938 16.585938 -7.640625 16.890625 -7.234375 C 17.203125 -6.835938 17.429688 -6.375 17.578125 -5.84375 C 17.734375 -5.320312 17.8125 -4.765625 17.8125 -4.171875 C 17.8125 -3.597656 17.734375 -3.039062 17.578125 -2.5 C 17.429688 -1.96875 17.203125 -1.5 16.890625 -1.09375 C 16.585938 -0.6875 16.210938 -0.359375 15.765625 -0.109375 C 15.316406 0.140625 14.804688 0.265625 14.234375 0.265625 C 13.671875 0.265625 13.175781 0.148438 12.75 -0.078125 C 12.332031 -0.316406 11.984375 -0.628906 11.703125 -1.015625 C 11.421875 -1.410156 11.207031 -1.867188 11.0625 -2.390625 C 10.914062 -2.921875 10.84375 -3.484375 10.84375 -4.078125 C 10.84375 -4.703125 10.921875 -5.285156 11.078125 -5.828125 C 11.242188 -6.367188 11.472656 -6.84375 11.765625 -7.25 C 12.066406 -7.664062 12.425781 -7.988281 12.84375 -8.21875 C 13.269531 -8.445312 13.753906 -8.5625 14.296875 -8.5625 Z M 14.296875 -0.640625 C 14.671875 -0.640625 15 -0.734375 15.28125 -0.921875 C 15.570312 -1.109375 15.816406 -1.359375 16.015625 -1.671875 C 16.210938 -1.992188 16.363281 -2.367188 16.46875 -2.796875 C 16.570312 -3.234375 16.625 -3.691406 16.625 -4.171875 C 16.625 -4.671875 16.566406 -5.128906 16.453125 -5.546875 C 16.347656 -5.972656 16.195312 -6.34375 16 -6.65625 C 15.800781 -6.96875 15.550781 -7.210938 15.25 -7.390625 C 14.957031 -7.566406 14.625 -7.65625 14.25 -7.65625 C 13.882812 -7.65625 13.566406 -7.566406 13.296875 -7.390625 C 13.023438 -7.210938 12.789062 -6.96875 12.59375 -6.65625 C 12.40625 -6.34375 12.265625 -5.972656 12.171875 -5.546875 C 12.078125 -5.128906 12.03125 -4.671875 12.03125 -4.171875 C 12.03125 -3.066406 12.238281 -2.203125 12.65625 -1.578125 C 13.082031 -0.953125 13.628906 -0.640625 14.296875 -0.640625 Z M 4.53125 -15.953125 C 5.082031 -15.953125 5.570312 -15.832031 6 -15.59375 C 6.425781 -15.351562 6.789062 -15.035156 7.09375 -14.640625 C 7.40625 -14.242188 7.632812 -13.78125 7.78125 -13.25 C 7.9375 -12.71875 8.015625 -12.15625 8.015625 -11.5625 C 8.015625 -10.988281 7.9375 -10.429688 7.78125 -9.890625 C 7.632812 -9.359375 7.410156 -8.890625 7.109375 -8.484375 C 6.816406 -8.078125 6.445312 -7.75 6 -7.5 C 5.550781 -7.25 5.039062 -7.125 4.46875 -7.125 C 3.90625 -7.125 3.410156 -7.238281 2.984375 -7.46875 C 2.566406 -7.707031 2.210938 -8.019531 1.921875 -8.40625 C 1.628906 -8.800781 1.410156 -9.257812 1.265625 -9.78125 C 1.128906 -10.3125 1.0625 -10.875 1.0625 -11.46875 C 1.0625 -12.09375 1.140625 -12.675781 1.296875 -13.21875 C 1.453125 -13.769531 1.675781 -14.25 1.96875 -14.65625 C 2.269531 -15.0625 2.632812 -15.378906 3.0625 -15.609375 C 3.5 -15.835938 3.988281 -15.953125 4.53125 -15.953125 Z M 4.53125 -8.046875 C 4.90625 -8.046875 5.234375 -8.132812 5.515625 -8.3125 C 5.804688 -8.5 6.046875 -8.75 6.234375 -9.0625 C 6.429688 -9.382812 6.582031 -9.757812 6.6875 -10.1875 C 6.789062 -10.625 6.84375 -11.082031 6.84375 -11.5625 C 6.84375 -12.0625 6.785156 -12.519531 6.671875 -12.9375 C 6.554688 -13.363281 6.398438 -13.734375 6.203125 -14.046875 C 6.003906 -14.359375 5.753906 -14.601562 5.453125 -14.78125 C 5.160156 -14.957031 4.835938 -15.046875 4.484375 -15.046875 C 4.117188 -15.046875 3.796875 -14.957031 3.515625 -14.78125 C 3.234375 -14.601562 2.992188 -14.359375 2.796875 -14.046875 C 2.609375 -13.734375 2.46875 -13.363281 2.375 -12.9375 C 2.28125 -12.519531 2.234375 -12.0625 2.234375 -11.5625 C 2.234375 -10.457031 2.445312 -9.59375 2.875 -8.96875 C 3.3125 -8.351562 3.863281 -8.046875 4.53125 -8.046875 Z M 4.53125 -8.046875 "/></g></g></g><g fill="#f6f6f4" fill-opacity="1"><g transform="translate(84.323654, 373.159488)"><g><path d="M 1.5 -13.65625 L 1.578125 -13.875 C 1.773438 -14.226562 2.023438 -14.570312 2.328125 -14.90625 C 2.628906 -15.238281 2.988281 -15.53125 3.40625 -15.78125 C 3.832031 -16.03125 4.316406 -16.234375 4.859375 -16.390625 C 5.398438 -16.546875 6.015625 -16.625 6.703125 -16.625 C 8.453125 -16.625 9.707031 -16.234375 10.46875 -15.453125 C 11.238281 -14.679688 11.625 -13.640625 11.625 -12.328125 C 11.625 -11.546875 11.4375 -10.828125 11.0625 -10.171875 C 10.6875 -9.523438 10.222656 -8.828125 9.671875 -8.078125 C 9.203125 -7.441406 8.65625 -6.765625 8.03125 -6.046875 C 7.40625 -5.328125 6.8125 -4.644531 6.25 -4 C 5.695312 -3.351562 5.222656 -2.78125 4.828125 -2.28125 C 4.441406 -1.789062 4.25 -1.457031 4.25 -1.28125 L 4.296875 -1.203125 L 6.25 -1.203125 C 7.25 -1.203125 8.046875 -1.210938 8.640625 -1.234375 C 9.242188 -1.265625 9.710938 -1.34375 10.046875 -1.46875 C 10.378906 -1.601562 10.625 -1.800781 10.78125 -2.0625 C 10.945312 -2.320312 11.085938 -2.691406 11.203125 -3.171875 L 11.328125 -3.328125 L 12 -3.328125 L 11.546875 -0.09375 L 11.328125 0.15625 C 11.210938 0.15625 10.929688 0.144531 10.484375 0.125 C 10.046875 0.101562 9.5625 0.0820312 9.03125 0.0625 C 8.507812 0.0507812 8.003906 0.0351562 7.515625 0.015625 C 7.023438 0.00390625 6.671875 0 6.453125 0 L 3.96875 0 C 3.601562 0 3.191406 0.015625 2.734375 0.046875 C 2.273438 0.078125 1.832031 0.113281 1.40625 0.15625 L 1.15625 -0.125 L 1.15625 -0.703125 C 1.519531 -1.171875 2.015625 -1.757812 2.640625 -2.46875 C 3.265625 -3.175781 3.925781 -3.925781 4.625 -4.71875 C 5.320312 -5.507812 6.007812 -6.304688 6.6875 -7.109375 C 7.375 -7.921875 7.960938 -8.660156 8.453125 -9.328125 C 8.835938 -9.859375 9.15625 -10.390625 9.40625 -10.921875 C 9.664062 -11.453125 9.796875 -12.019531 9.796875 -12.625 C 9.796875 -13.457031 9.484375 -14.109375 8.859375 -14.578125 C 8.234375 -15.054688 7.460938 -15.296875 6.546875 -15.296875 C 5.453125 -15.296875 4.5625 -15.015625 3.875 -14.453125 C 3.1875 -13.898438 2.8125 -13.066406 2.75 -11.953125 L 2.65625 -11.84375 L 1.796875 -11.84375 Z M 1.5 -13.65625 "/></g></g></g><g fill="#f6f6f4" fill-opacity="1"><g transform="translate(97.721538, 373.159488)"><g><path d="M 3.09375 -0.578125 C 3.5625 -1.128906 3.992188 -1.65625 4.390625 -2.15625 C 4.796875 -2.65625 5.191406 -3.15625 5.578125 -3.65625 C 5.972656 -4.15625 6.363281 -4.671875 6.75 -5.203125 C 7.144531 -5.734375 7.570312 -6.316406 8.03125 -6.953125 L 11.03125 -11.078125 C 11.644531 -11.921875 12.285156 -12.8125 12.953125 -13.75 C 13.617188 -14.6875 14.242188 -15.675781 14.828125 -16.71875 L 14.953125 -16.828125 L 16.84375 -16.828125 L 16.828125 -16.71875 C 15.910156 -15.707031 15.097656 -14.722656 14.390625 -13.765625 C 13.679688 -12.804688 13.023438 -11.910156 12.421875 -11.078125 L 9.421875 -6.953125 C 8.972656 -6.316406 8.554688 -5.734375 8.171875 -5.203125 C 7.785156 -4.671875 7.421875 -4.15625 7.078125 -3.65625 C 6.742188 -3.15625 6.410156 -2.65625 6.078125 -2.15625 C 5.753906 -1.65625 5.425781 -1.128906 5.09375 -0.578125 L 4.96875 -0.46875 L 3.078125 -0.46875 Z M 14.90625 -8.921875 C 15.488281 -8.921875 16.003906 -8.796875 16.453125 -8.546875 C 16.898438 -8.296875 17.28125 -7.960938 17.59375 -7.546875 C 17.914062 -7.128906 18.15625 -6.644531 18.3125 -6.09375 C 18.46875 -5.550781 18.546875 -4.96875 18.546875 -4.34375 C 18.546875 -3.75 18.46875 -3.171875 18.3125 -2.609375 C 18.15625 -2.054688 17.914062 -1.566406 17.59375 -1.140625 C 17.28125 -0.710938 16.890625 -0.367188 16.421875 -0.109375 C 15.953125 0.148438 15.421875 0.28125 14.828125 0.28125 C 14.242188 0.28125 13.726562 0.160156 13.28125 -0.078125 C 12.84375 -0.328125 12.476562 -0.65625 12.1875 -1.0625 C 11.894531 -1.46875 11.671875 -1.945312 11.515625 -2.5 C 11.367188 -3.050781 11.296875 -3.632812 11.296875 -4.25 C 11.296875 -4.894531 11.378906 -5.5 11.546875 -6.0625 C 11.710938 -6.632812 11.945312 -7.132812 12.25 -7.5625 C 12.5625 -7.988281 12.9375 -8.320312 13.375 -8.5625 C 13.820312 -8.800781 14.332031 -8.921875 14.90625 -8.921875 Z M 14.90625 -0.671875 C 15.28125 -0.671875 15.617188 -0.765625 15.921875 -0.953125 C 16.222656 -1.148438 16.476562 -1.414062 16.6875 -1.75 C 16.894531 -2.082031 17.050781 -2.472656 17.15625 -2.921875 C 17.269531 -3.367188 17.328125 -3.84375 17.328125 -4.34375 C 17.328125 -4.863281 17.265625 -5.34375 17.140625 -5.78125 C 17.023438 -6.226562 16.863281 -6.613281 16.65625 -6.9375 C 16.445312 -7.257812 16.1875 -7.507812 15.875 -7.6875 C 15.570312 -7.875 15.226562 -7.96875 14.84375 -7.96875 C 14.46875 -7.96875 14.132812 -7.875 13.84375 -7.6875 C 13.5625 -7.507812 13.320312 -7.257812 13.125 -6.9375 C 12.925781 -6.613281 12.773438 -6.226562 12.671875 -5.78125 C 12.578125 -5.34375 12.53125 -4.863281 12.53125 -4.34375 C 12.53125 -3.195312 12.75 -2.296875 13.1875 -1.640625 C 13.625 -0.992188 14.195312 -0.671875 14.90625 -0.671875 Z M 4.71875 -16.625 C 5.289062 -16.625 5.800781 -16.5 6.25 -16.25 C 6.695312 -16 7.078125 -15.664062 7.390625 -15.25 C 7.710938 -14.832031 7.953125 -14.347656 8.109375 -13.796875 C 8.265625 -13.242188 8.34375 -12.660156 8.34375 -12.046875 C 8.34375 -11.453125 8.265625 -10.875 8.109375 -10.3125 C 7.953125 -9.75 7.71875 -9.253906 7.40625 -8.828125 C 7.101562 -8.410156 6.71875 -8.070312 6.25 -7.8125 C 5.78125 -7.550781 5.25 -7.421875 4.65625 -7.421875 C 4.070312 -7.421875 3.554688 -7.539062 3.109375 -7.78125 C 2.671875 -8.03125 2.300781 -8.359375 2 -8.765625 C 1.695312 -9.171875 1.46875 -9.648438 1.3125 -10.203125 C 1.164062 -10.753906 1.09375 -11.335938 1.09375 -11.953125 C 1.09375 -12.597656 1.175781 -13.203125 1.34375 -13.765625 C 1.507812 -14.335938 1.75 -14.835938 2.0625 -15.265625 C 2.375 -15.691406 2.753906 -16.023438 3.203125 -16.265625 C 3.648438 -16.503906 4.15625 -16.625 4.71875 -16.625 Z M 4.71875 -8.375 C 5.101562 -8.375 5.445312 -8.46875 5.75 -8.65625 C 6.050781 -8.851562 6.300781 -9.117188 6.5 -9.453125 C 6.695312 -9.785156 6.847656 -10.175781 6.953125 -10.625 C 7.066406 -11.070312 7.125 -11.546875 7.125 -12.046875 C 7.125 -12.566406 7.066406 -13.046875 6.953125 -13.484375 C 6.835938 -13.929688 6.675781 -14.316406 6.46875 -14.640625 C 6.257812 -14.960938 6 -15.210938 5.6875 -15.390625 C 5.375 -15.578125 5.035156 -15.671875 4.671875 -15.671875 C 4.285156 -15.671875 3.945312 -15.578125 3.65625 -15.390625 C 3.363281 -15.210938 3.117188 -14.960938 2.921875 -14.640625 C 2.722656 -14.316406 2.570312 -13.929688 2.46875 -13.484375 C 2.375 -13.046875 2.328125 -12.566406 2.328125 -12.046875 C 2.328125 -10.898438 2.550781 -10 3 -9.34375 C 3.445312 -8.695312 4.019531 -8.375 4.71875 -8.375 Z M 4.71875 -8.375 "/></g></g></g><g fill="#f6f6f4" fill-opacity="1"><g transform="translate(86.702852, 325.639958)"><g><path d="M 1.015625 -13.296875 L 1.078125 -13.4375 C 1.765625 -13.769531 2.421875 -14.125 3.046875 -14.5 C 3.671875 -14.882812 4.285156 -15.351562 4.890625 -15.90625 L 5.0625 -15.90625 L 5.59375 -15.703125 C 5.570312 -15.566406 5.554688 -15.414062 5.546875 -15.25 C 5.546875 -15.082031 5.539062 -14.910156 5.53125 -14.734375 C 5.519531 -14.554688 5.507812 -14.382812 5.5 -14.21875 C 5.5 -14.0625 5.5 -13.9375 5.5 -13.84375 C 5.476562 -13.59375 5.460938 -13.351562 5.453125 -13.125 C 5.453125 -12.90625 5.445312 -12.640625 5.4375 -12.328125 C 5.425781 -12.023438 5.421875 -11.65625 5.421875 -11.21875 C 5.421875 -10.789062 5.421875 -10.242188 5.421875 -9.578125 L 5.421875 -6.1875 C 5.421875 -5.519531 5.421875 -4.972656 5.421875 -4.546875 C 5.421875 -4.117188 5.425781 -3.757812 5.4375 -3.46875 C 5.445312 -3.1875 5.453125 -2.929688 5.453125 -2.703125 C 5.460938 -2.484375 5.484375 -2.238281 5.515625 -1.96875 C 5.546875 -1.632812 5.617188 -1.378906 5.734375 -1.203125 C 5.847656 -1.035156 5.96875 -0.898438 6.09375 -0.796875 C 6.238281 -0.679688 6.460938 -0.59375 6.765625 -0.53125 C 7.066406 -0.46875 7.335938 -0.4375 7.578125 -0.4375 L 7.703125 -0.3125 L 7.75 0 L 7.703125 0.09375 C 7.585938 0.09375 7.414062 0.0820312 7.1875 0.0625 C 6.96875 0.0507812 6.726562 0.0390625 6.46875 0.03125 C 6.21875 0.03125 5.976562 0.0234375 5.75 0.015625 C 5.53125 0.00390625 5.363281 0 5.25 0 L 3.890625 0 C 3.773438 0 3.601562 0.00390625 3.375 0.015625 C 3.15625 0.0234375 2.914062 0.03125 2.65625 0.03125 C 2.40625 0.0390625 2.164062 0.0507812 1.9375 0.0625 C 1.71875 0.0820312 1.550781 0.09375 1.4375 0.09375 L 1.390625 0 L 1.4375 -0.34375 L 1.515625 -0.4375 C 1.765625 -0.4375 2.050781 -0.460938 2.375 -0.515625 C 2.707031 -0.566406 2.941406 -0.660156 3.078125 -0.796875 C 3.203125 -0.898438 3.316406 -1.039062 3.421875 -1.21875 C 3.535156 -1.394531 3.609375 -1.644531 3.640625 -1.96875 C 3.660156 -2.175781 3.675781 -2.378906 3.6875 -2.578125 C 3.707031 -2.773438 3.722656 -3.003906 3.734375 -3.265625 C 3.742188 -3.535156 3.75 -3.851562 3.75 -4.21875 C 3.75 -4.59375 3.75 -5.054688 3.75 -5.609375 L 3.75 -9.53125 C 3.75 -10.1875 3.75 -10.71875 3.75 -11.125 C 3.75 -11.53125 3.742188 -11.867188 3.734375 -12.140625 C 3.722656 -12.410156 3.707031 -12.644531 3.6875 -12.84375 C 3.675781 -13.050781 3.660156 -13.28125 3.640625 -13.53125 L 1.078125 -12.890625 L 1.015625 -12.984375 Z M 1.015625 -13.296875 "/></g></g></g><g fill="#f6f6f4" fill-opacity="1"><g transform="translate(95.198865, 325.639958)"><g><path d="M 7.75 -15.953125 C 8.757812 -15.953125 9.660156 -15.734375 10.453125 -15.296875 C 11.242188 -14.867188 11.910156 -14.285156 12.453125 -13.546875 C 12.992188 -12.804688 13.410156 -11.945312 13.703125 -10.96875 C 13.992188 -9.988281 14.140625 -8.960938 14.140625 -7.890625 C 14.140625 -6.835938 14 -5.816406 13.71875 -4.828125 C 13.4375 -3.847656 13.019531 -2.984375 12.46875 -2.234375 C 11.925781 -1.484375 11.25 -0.878906 10.4375 -0.421875 C 9.625 0.0351562 8.6875 0.265625 7.625 0.265625 C 6.59375 0.265625 5.6875 0.0507812 4.90625 -0.375 C 4.132812 -0.8125 3.488281 -1.394531 2.96875 -2.125 C 2.445312 -2.851562 2.050781 -3.703125 1.78125 -4.671875 C 1.519531 -5.640625 1.390625 -6.660156 1.390625 -7.734375 C 1.390625 -8.867188 1.53125 -9.9375 1.8125 -10.9375 C 2.101562 -11.9375 2.519531 -12.804688 3.0625 -13.546875 C 3.613281 -14.285156 4.28125 -14.867188 5.0625 -15.296875 C 5.84375 -15.734375 6.738281 -15.953125 7.75 -15.953125 Z M 7.734375 -1.015625 C 8.453125 -1.015625 9.09375 -1.191406 9.65625 -1.546875 C 10.226562 -1.910156 10.703125 -2.398438 11.078125 -3.015625 C 11.460938 -3.640625 11.757812 -4.367188 11.96875 -5.203125 C 12.175781 -6.035156 12.28125 -6.925781 12.28125 -7.875 C 12.28125 -8.832031 12.171875 -9.726562 11.953125 -10.5625 C 11.742188 -11.394531 11.4375 -12.117188 11.03125 -12.734375 C 10.632812 -13.347656 10.148438 -13.828125 9.578125 -14.171875 C 9.015625 -14.515625 8.375 -14.6875 7.65625 -14.6875 C 6.9375 -14.6875 6.300781 -14.515625 5.75 -14.171875 C 5.207031 -13.828125 4.753906 -13.347656 4.390625 -12.734375 C 4.023438 -12.128906 3.742188 -11.414062 3.546875 -10.59375 C 3.359375 -9.769531 3.265625 -8.867188 3.265625 -7.890625 C 3.265625 -6.816406 3.367188 -5.859375 3.578125 -5.015625 C 3.796875 -4.171875 4.101562 -3.453125 4.5 -2.859375 C 4.90625 -2.265625 5.378906 -1.804688 5.921875 -1.484375 C 6.472656 -1.171875 7.078125 -1.015625 7.734375 -1.015625 Z M 7.734375 -1.015625 "/></g></g></g><g fill="#f6f6f4" fill-opacity="1"><g transform="translate(110.702897, 325.639958)"><g><path d="M 2.96875 -0.546875 C 3.414062 -1.078125 3.832031 -1.582031 4.21875 -2.0625 C 4.601562 -2.539062 4.984375 -3.019531 5.359375 -3.5 C 5.734375 -3.976562 6.109375 -4.472656 6.484375 -4.984375 C 6.867188 -5.503906 7.273438 -6.066406 7.703125 -6.671875 L 10.578125 -10.625 C 11.171875 -11.445312 11.785156 -12.304688 12.421875 -13.203125 C 13.066406 -14.097656 13.671875 -15.050781 14.234375 -16.0625 L 14.359375 -16.15625 L 16.171875 -16.15625 L 16.15625 -16.0625 C 15.269531 -15.082031 14.488281 -14.128906 13.8125 -13.203125 C 13.132812 -12.285156 12.503906 -11.425781 11.921875 -10.625 L 9.046875 -6.671875 C 8.617188 -6.066406 8.21875 -5.503906 7.84375 -4.984375 C 7.476562 -4.472656 7.128906 -3.976562 6.796875 -3.5 C 6.472656 -3.019531 6.15625 -2.539062 5.84375 -2.0625 C 5.53125 -1.582031 5.210938 -1.078125 4.890625 -0.546875 L 4.78125 -0.453125 L 2.953125 -0.453125 Z M 14.296875 -8.5625 C 14.859375 -8.5625 15.351562 -8.441406 15.78125 -8.203125 C 16.21875 -7.960938 16.585938 -7.640625 16.890625 -7.234375 C 17.203125 -6.835938 17.429688 -6.375 17.578125 -5.84375 C 17.734375 -5.320312 17.8125 -4.765625 17.8125 -4.171875 C 17.8125 -3.597656 17.734375 -3.039062 17.578125 -2.5 C 17.429688 -1.96875 17.203125 -1.5 16.890625 -1.09375 C 16.585938 -0.6875 16.210938 -0.359375 15.765625 -0.109375 C 15.316406 0.140625 14.804688 0.265625 14.234375 0.265625 C 13.671875 0.265625 13.175781 0.148438 12.75 -0.078125 C 12.332031 -0.316406 11.984375 -0.628906 11.703125 -1.015625 C 11.421875 -1.410156 11.207031 -1.867188 11.0625 -2.390625 C 10.914062 -2.921875 10.84375 -3.484375 10.84375 -4.078125 C 10.84375 -4.703125 10.921875 -5.285156 11.078125 -5.828125 C 11.242188 -6.367188 11.472656 -6.84375 11.765625 -7.25 C 12.066406 -7.664062 12.425781 -7.988281 12.84375 -8.21875 C 13.269531 -8.445312 13.753906 -8.5625 14.296875 -8.5625 Z M 14.296875 -0.640625 C 14.671875 -0.640625 15 -0.734375 15.28125 -0.921875 C 15.570312 -1.109375 15.816406 -1.359375 16.015625 -1.671875 C 16.210938 -1.992188 16.363281 -2.367188 16.46875 -2.796875 C 16.570312 -3.234375 16.625 -3.691406 16.625 -4.171875 C 16.625 -4.671875 16.566406 -5.128906 16.453125 -5.546875 C 16.347656 -5.972656 16.195312 -6.34375 16 -6.65625 C 15.800781 -6.96875 15.550781 -7.210938 15.25 -7.390625 C 14.957031 -7.566406 14.625 -7.65625 14.25 -7.65625 C 13.882812 -7.65625 13.566406 -7.566406 13.296875 -7.390625 C 13.023438 -7.210938 12.789062 -6.96875 12.59375 -6.65625 C 12.40625 -6.34375 12.265625 -5.972656 12.171875 -5.546875 C 12.078125 -5.128906 12.03125 -4.671875 12.03125 -4.171875 C 12.03125 -3.066406 12.238281 -2.203125 12.65625 -1.578125 C 13.082031 -0.953125 13.628906 -0.640625 14.296875 -0.640625 Z M 4.53125 -15.953125 C 5.082031 -15.953125 5.570312 -15.832031 6 -15.59375 C 6.425781 -15.351562 6.789062 -15.035156 7.09375 -14.640625 C 7.40625 -14.242188 7.632812 -13.78125 7.78125 -13.25 C 7.9375 -12.71875 8.015625 -12.15625 8.015625 -11.5625 C 8.015625 -10.988281 7.9375 -10.429688 7.78125 -9.890625 C 7.632812 -9.359375 7.410156 -8.890625 7.109375 -8.484375 C 6.816406 -8.078125 6.445312 -7.75 6 -7.5 C 5.550781 -7.25 5.039062 -7.125 4.46875 -7.125 C 3.90625 -7.125 3.410156 -7.238281 2.984375 -7.46875 C 2.566406 -7.707031 2.210938 -8.019531 1.921875 -8.40625 C 1.628906 -8.800781 1.410156 -9.257812 1.265625 -9.78125 C 1.128906 -10.3125 1.0625 -10.875 1.0625 -11.46875 C 1.0625 -12.09375 1.140625 -12.675781 1.296875 -13.21875 C 1.453125 -13.769531 1.675781 -14.25 1.96875 -14.65625 C 2.269531 -15.0625 2.632812 -15.378906 3.0625 -15.609375 C 3.5 -15.835938 3.988281 -15.953125 4.53125 -15.953125 Z M 4.53125 -8.046875 C 4.90625 -8.046875 5.234375 -8.132812 5.515625 -8.3125 C 5.804688 -8.5 6.046875 -8.75 6.234375 -9.0625 C 6.429688 -9.382812 6.582031 -9.757812 6.6875 -10.1875 C 6.789062 -10.625 6.84375 -11.082031 6.84375 -11.5625 C 6.84375 -12.0625 6.785156 -12.519531 6.671875 -12.9375 C 6.554688 -13.363281 6.398438 -13.734375 6.203125 -14.046875 C 6.003906 -14.359375 5.753906 -14.601562 5.453125 -14.78125 C 5.160156 -14.957031 4.835938 -15.046875 4.484375 -15.046875 C 4.117188 -15.046875 3.796875 -14.957031 3.515625 -14.78125 C 3.234375 -14.601562 2.992188 -14.359375 2.796875 -14.046875 C 2.609375 -13.734375 2.46875 -13.363281 2.375 -12.9375 C 2.28125 -12.519531 2.234375 -12.0625 2.234375 -11.5625 C 2.234375 -10.457031 2.445312 -9.59375 2.875 -8.96875 C 3.3125 -8.351562 3.863281 -8.046875 4.53125 -8.046875 Z M 4.53125 -8.046875 "/></g></g></g><g fill="#f6f6f4" fill-opacity="1"><g transform="translate(123.886158, 255.770429)"><g><path d="M 1.015625 -13.296875 L 1.078125 -13.4375 C 1.765625 -13.769531 2.421875 -14.125 3.046875 -14.5 C 3.671875 -14.882812 4.285156 -15.351562 4.890625 -15.90625 L 5.0625 -15.90625 L 5.59375 -15.703125 C 5.570312 -15.566406 5.554688 -15.414062 5.546875 -15.25 C 5.546875 -15.082031 5.539062 -14.910156 5.53125 -14.734375 C 5.519531 -14.554688 5.507812 -14.382812 5.5 -14.21875 C 5.5 -14.0625 5.5 -13.9375 5.5 -13.84375 C 5.476562 -13.59375 5.460938 -13.351562 5.453125 -13.125 C 5.453125 -12.90625 5.445312 -12.640625 5.4375 -12.328125 C 5.425781 -12.023438 5.421875 -11.65625 5.421875 -11.21875 C 5.421875 -10.789062 5.421875 -10.242188 5.421875 -9.578125 L 5.421875 -6.1875 C 5.421875 -5.519531 5.421875 -4.972656 5.421875 -4.546875 C 5.421875 -4.117188 5.425781 -3.757812 5.4375 -3.46875 C 5.445312 -3.1875 5.453125 -2.929688 5.453125 -2.703125 C 5.460938 -2.484375 5.484375 -2.238281 5.515625 -1.96875 C 5.546875 -1.632812 5.617188 -1.378906 5.734375 -1.203125 C 5.847656 -1.035156 5.96875 -0.898438 6.09375 -0.796875 C 6.238281 -0.679688 6.460938 -0.59375 6.765625 -0.53125 C 7.066406 -0.46875 7.335938 -0.4375 7.578125 -0.4375 L 7.703125 -0.3125 L 7.75 0 L 7.703125 0.09375 C 7.585938 0.09375 7.414062 0.0820312 7.1875 0.0625 C 6.96875 0.0507812 6.726562 0.0390625 6.46875 0.03125 C 6.21875 0.03125 5.976562 0.0234375 5.75 0.015625 C 5.53125 0.00390625 5.363281 0 5.25 0 L 3.890625 0 C 3.773438 0 3.601562 0.00390625 3.375 0.015625 C 3.15625 0.0234375 2.914062 0.03125 2.65625 0.03125 C 2.40625 0.0390625 2.164062 0.0507812 1.9375 0.0625 C 1.71875 0.0820312 1.550781 0.09375 1.4375 0.09375 L 1.390625 0 L 1.4375 -0.34375 L 1.515625 -0.4375 C 1.765625 -0.4375 2.050781 -0.460938 2.375 -0.515625 C 2.707031 -0.566406 2.941406 -0.660156 3.078125 -0.796875 C 3.203125 -0.898438 3.316406 -1.039062 3.421875 -1.21875 C 3.535156 -1.394531 3.609375 -1.644531 3.640625 -1.96875 C 3.660156 -2.175781 3.675781 -2.378906 3.6875 -2.578125 C 3.707031 -2.773438 3.722656 -3.003906 3.734375 -3.265625 C 3.742188 -3.535156 3.75 -3.851562 3.75 -4.21875 C 3.75 -4.59375 3.75 -5.054688 3.75 -5.609375 L 3.75 -9.53125 C 3.75 -10.1875 3.75 -10.71875 3.75 -11.125 C 3.75 -11.53125 3.742188 -11.867188 3.734375 -12.140625 C 3.722656 -12.410156 3.707031 -12.644531 3.6875 -12.84375 C 3.675781 -13.050781 3.660156 -13.28125 3.640625 -13.53125 L 1.078125 -12.890625 L 1.015625 -12.984375 Z M 1.015625 -13.296875 "/></g></g></g><g fill="#f6f6f4" fill-opacity="1"><g transform="translate(132.382172, 255.770429)"><g><path d="M 7.75 -15.953125 C 8.757812 -15.953125 9.660156 -15.734375 10.453125 -15.296875 C 11.242188 -14.867188 11.910156 -14.285156 12.453125 -13.546875 C 12.992188 -12.804688 13.410156 -11.945312 13.703125 -10.96875 C 13.992188 -9.988281 14.140625 -8.960938 14.140625 -7.890625 C 14.140625 -6.835938 14 -5.816406 13.71875 -4.828125 C 13.4375 -3.847656 13.019531 -2.984375 12.46875 -2.234375 C 11.925781 -1.484375 11.25 -0.878906 10.4375 -0.421875 C 9.625 0.0351562 8.6875 0.265625 7.625 0.265625 C 6.59375 0.265625 5.6875 0.0507812 4.90625 -0.375 C 4.132812 -0.8125 3.488281 -1.394531 2.96875 -2.125 C 2.445312 -2.851562 2.050781 -3.703125 1.78125 -4.671875 C 1.519531 -5.640625 1.390625 -6.660156 1.390625 -7.734375 C 1.390625 -8.867188 1.53125 -9.9375 1.8125 -10.9375 C 2.101562 -11.9375 2.519531 -12.804688 3.0625 -13.546875 C 3.613281 -14.285156 4.28125 -14.867188 5.0625 -15.296875 C 5.84375 -15.734375 6.738281 -15.953125 7.75 -15.953125 Z M 7.734375 -1.015625 C 8.453125 -1.015625 9.09375 -1.191406 9.65625 -1.546875 C 10.226562 -1.910156 10.703125 -2.398438 11.078125 -3.015625 C 11.460938 -3.640625 11.757812 -4.367188 11.96875 -5.203125 C 12.175781 -6.035156 12.28125 -6.925781 12.28125 -7.875 C 12.28125 -8.832031 12.171875 -9.726562 11.953125 -10.5625 C 11.742188 -11.394531 11.4375 -12.117188 11.03125 -12.734375 C 10.632812 -13.347656 10.148438 -13.828125 9.578125 -14.171875 C 9.015625 -14.515625 8.375 -14.6875 7.65625 -14.6875 C 6.9375 -14.6875 6.300781 -14.515625 5.75 -14.171875 C 5.207031 -13.828125 4.753906 -13.347656 4.390625 -12.734375 C 4.023438 -12.128906 3.742188 -11.414062 3.546875 -10.59375 C 3.359375 -9.769531 3.265625 -8.867188 3.265625 -7.890625 C 3.265625 -6.816406 3.367188 -5.859375 3.578125 -5.015625 C 3.796875 -4.171875 4.101562 -3.453125 4.5 -2.859375 C 4.90625 -2.265625 5.378906 -1.804688 5.921875 -1.484375 C 6.472656 -1.171875 7.078125 -1.015625 7.734375 -1.015625 Z M 7.734375 -1.015625 "/></g></g></g><g fill="#f6f6f4" fill-opacity="1"><g transform="translate(147.886203, 255.770429)"><g><path d="M 2.96875 -0.546875 C 3.414062 -1.078125 3.832031 -1.582031 4.21875 -2.0625 C 4.601562 -2.539062 4.984375 -3.019531 5.359375 -3.5 C 5.734375 -3.976562 6.109375 -4.472656 6.484375 -4.984375 C 6.867188 -5.503906 7.273438 -6.066406 7.703125 -6.671875 L 10.578125 -10.625 C 11.171875 -11.445312 11.785156 -12.304688 12.421875 -13.203125 C 13.066406 -14.097656 13.671875 -15.050781 14.234375 -16.0625 L 14.359375 -16.15625 L 16.171875 -16.15625 L 16.15625 -16.0625 C 15.269531 -15.082031 14.488281 -14.128906 13.8125 -13.203125 C 13.132812 -12.285156 12.503906 -11.425781 11.921875 -10.625 L 9.046875 -6.671875 C 8.617188 -6.066406 8.21875 -5.503906 7.84375 -4.984375 C 7.476562 -4.472656 7.128906 -3.976562 6.796875 -3.5 C 6.472656 -3.019531 6.15625 -2.539062 5.84375 -2.0625 C 5.53125 -1.582031 5.210938 -1.078125 4.890625 -0.546875 L 4.78125 -0.453125 L 2.953125 -0.453125 Z M 14.296875 -8.5625 C 14.859375 -8.5625 15.351562 -8.441406 15.78125 -8.203125 C 16.21875 -7.960938 16.585938 -7.640625 16.890625 -7.234375 C 17.203125 -6.835938 17.429688 -6.375 17.578125 -5.84375 C 17.734375 -5.320312 17.8125 -4.765625 17.8125 -4.171875 C 17.8125 -3.597656 17.734375 -3.039062 17.578125 -2.5 C 17.429688 -1.96875 17.203125 -1.5 16.890625 -1.09375 C 16.585938 -0.6875 16.210938 -0.359375 15.765625 -0.109375 C 15.316406 0.140625 14.804688 0.265625 14.234375 0.265625 C 13.671875 0.265625 13.175781 0.148438 12.75 -0.078125 C 12.332031 -0.316406 11.984375 -0.628906 11.703125 -1.015625 C 11.421875 -1.410156 11.207031 -1.867188 11.0625 -2.390625 C 10.914062 -2.921875 10.84375 -3.484375 10.84375 -4.078125 C 10.84375 -4.703125 10.921875 -5.285156 11.078125 -5.828125 C 11.242188 -6.367188 11.472656 -6.84375 11.765625 -7.25 C 12.066406 -7.664062 12.425781 -7.988281 12.84375 -8.21875 C 13.269531 -8.445312 13.753906 -8.5625 14.296875 -8.5625 Z M 14.296875 -0.640625 C 14.671875 -0.640625 15 -0.734375 15.28125 -0.921875 C 15.570312 -1.109375 15.816406 -1.359375 16.015625 -1.671875 C 16.210938 -1.992188 16.363281 -2.367188 16.46875 -2.796875 C 16.570312 -3.234375 16.625 -3.691406 16.625 -4.171875 C 16.625 -4.671875 16.566406 -5.128906 16.453125 -5.546875 C 16.347656 -5.972656 16.195312 -6.34375 16 -6.65625 C 15.800781 -6.96875 15.550781 -7.210938 15.25 -7.390625 C 14.957031 -7.566406 14.625 -7.65625 14.25 -7.65625 C 13.882812 -7.65625 13.566406 -7.566406 13.296875 -7.390625 C 13.023438 -7.210938 12.789062 -6.96875 12.59375 -6.65625 C 12.40625 -6.34375 12.265625 -5.972656 12.171875 -5.546875 C 12.078125 -5.128906 12.03125 -4.671875 12.03125 -4.171875 C 12.03125 -3.066406 12.238281 -2.203125 12.65625 -1.578125 C 13.082031 -0.953125 13.628906 -0.640625 14.296875 -0.640625 Z M 4.53125 -15.953125 C 5.082031 -15.953125 5.570312 -15.832031 6 -15.59375 C 6.425781 -15.351562 6.789062 -15.035156 7.09375 -14.640625 C 7.40625 -14.242188 7.632812 -13.78125 7.78125 -13.25 C 7.9375 -12.71875 8.015625 -12.15625 8.015625 -11.5625 C 8.015625 -10.988281 7.9375 -10.429688 7.78125 -9.890625 C 7.632812 -9.359375 7.410156 -8.890625 7.109375 -8.484375 C 6.816406 -8.078125 6.445312 -7.75 6 -7.5 C 5.550781 -7.25 5.039062 -7.125 4.46875 -7.125 C 3.90625 -7.125 3.410156 -7.238281 2.984375 -7.46875 C 2.566406 -7.707031 2.210938 -8.019531 1.921875 -8.40625 C 1.628906 -8.800781 1.410156 -9.257812 1.265625 -9.78125 C 1.128906 -10.3125 1.0625 -10.875 1.0625 -11.46875 C 1.0625 -12.09375 1.140625 -12.675781 1.296875 -13.21875 C 1.453125 -13.769531 1.675781 -14.25 1.96875 -14.65625 C 2.269531 -15.0625 2.632812 -15.378906 3.0625 -15.609375 C 3.5 -15.835938 3.988281 -15.953125 4.53125 -15.953125 Z M 4.53125 -8.046875 C 4.90625 -8.046875 5.234375 -8.132812 5.515625 -8.3125 C 5.804688 -8.5 6.046875 -8.75 6.234375 -9.0625 C 6.429688 -9.382812 6.582031 -9.757812 6.6875 -10.1875 C 6.789062 -10.625 6.84375 -11.082031 6.84375 -11.5625 C 6.84375 -12.0625 6.785156 -12.519531 6.671875 -12.9375 C 6.554688 -13.363281 6.398438 -13.734375 6.203125 -14.046875 C 6.003906 -14.359375 5.753906 -14.601562 5.453125 -14.78125 C 5.160156 -14.957031 4.835938 -15.046875 4.484375 -15.046875 C 4.117188 -15.046875 3.796875 -14.957031 3.515625 -14.78125 C 3.234375 -14.601562 2.992188 -14.359375 2.796875 -14.046875 C 2.609375 -13.734375 2.46875 -13.363281 2.375 -12.9375 C 2.28125 -12.519531 2.234375 -12.0625 2.234375 -11.5625 C 2.234375 -10.457031 2.445312 -9.59375 2.875 -8.96875 C 3.3125 -8.351562 3.863281 -8.046875 4.53125 -8.046875 Z M 4.53125 -8.046875 "/></g></g></g><g fill="#f6f6f4" fill-opacity="1"><g transform="translate(189.956461, 211.312554)"><g><path d="M 9.84375 -4.828125 C 9.84375 -5.492188 9.726562 -6.039062 9.5 -6.46875 C 9.28125 -6.894531 8.992188 -7.226562 8.640625 -7.46875 C 8.285156 -7.71875 7.878906 -7.882812 7.421875 -7.96875 C 6.972656 -8.0625 6.523438 -8.109375 6.078125 -8.109375 C 5.492188 -8.109375 4.921875 -8.046875 4.359375 -7.921875 C 3.804688 -7.796875 3.296875 -7.59375 2.828125 -7.3125 L 2.59375 -7.3125 L 1.9375 -7.6875 L 1.890625 -7.84375 L 2.65625 -15.5 L 2.8125 -15.703125 L 4.96875 -15.703125 C 5.394531 -15.703125 6.03125 -15.710938 6.875 -15.734375 C 7.726562 -15.753906 8.707031 -15.804688 9.8125 -15.890625 L 10.03125 -15.703125 L 10.390625 -13.109375 L 10.25 -12.9375 L 9.8125 -12.9375 L 9.671875 -13.0625 C 9.609375 -13.40625 9.523438 -13.675781 9.421875 -13.875 C 9.328125 -14.082031 9.144531 -14.234375 8.875 -14.328125 C 8.601562 -14.421875 8.210938 -14.476562 7.703125 -14.5 C 7.191406 -14.53125 6.492188 -14.546875 5.609375 -14.546875 L 4.171875 -14.546875 C 4.078125 -14.546875 4.03125 -14.503906 4.03125 -14.421875 L 3.546875 -9.046875 C 3.960938 -9.203125 4.421875 -9.320312 4.921875 -9.40625 C 5.429688 -9.488281 5.96875 -9.53125 6.53125 -9.53125 C 7.1875 -9.53125 7.816406 -9.453125 8.421875 -9.296875 C 9.035156 -9.148438 9.578125 -8.90625 10.046875 -8.5625 C 10.515625 -8.21875 10.890625 -7.753906 11.171875 -7.171875 C 11.453125 -6.597656 11.59375 -5.878906 11.59375 -5.015625 C 11.59375 -4.171875 11.445312 -3.421875 11.15625 -2.765625 C 10.875 -2.109375 10.472656 -1.554688 9.953125 -1.109375 C 9.429688 -0.660156 8.8125 -0.316406 8.09375 -0.078125 C 7.375 0.148438 6.582031 0.265625 5.71875 0.265625 C 4.59375 0.265625 3.679688 0.0859375 2.984375 -0.265625 C 2.285156 -0.617188 1.722656 -1.09375 1.296875 -1.6875 L 1.265625 -1.921875 L 1.53125 -3.625 L 2.40625 -3.625 L 2.46875 -3.53125 C 2.5 -2.8125 2.804688 -2.210938 3.390625 -1.734375 C 3.972656 -1.253906 4.828125 -1.015625 5.953125 -1.015625 C 6.671875 -1.015625 7.273438 -1.113281 7.765625 -1.3125 C 8.265625 -1.519531 8.664062 -1.800781 8.96875 -2.15625 C 9.28125 -2.507812 9.503906 -2.914062 9.640625 -3.375 C 9.773438 -3.84375 9.84375 -4.328125 9.84375 -4.828125 Z M 9.84375 -4.828125 "/></g></g></g><g fill="#f6f6f4" fill-opacity="1"><g transform="translate(202.700487, 211.312554)"><g><path d="M 2.96875 -0.546875 C 3.414062 -1.078125 3.832031 -1.582031 4.21875 -2.0625 C 4.601562 -2.539062 4.984375 -3.019531 5.359375 -3.5 C 5.734375 -3.976562 6.109375 -4.472656 6.484375 -4.984375 C 6.867188 -5.503906 7.273438 -6.066406 7.703125 -6.671875 L 10.578125 -10.625 C 11.171875 -11.445312 11.785156 -12.304688 12.421875 -13.203125 C 13.066406 -14.097656 13.671875 -15.050781 14.234375 -16.0625 L 14.359375 -16.15625 L 16.171875 -16.15625 L 16.15625 -16.0625 C 15.269531 -15.082031 14.488281 -14.128906 13.8125 -13.203125 C 13.132812 -12.285156 12.503906 -11.425781 11.921875 -10.625 L 9.046875 -6.671875 C 8.617188 -6.066406 8.21875 -5.503906 7.84375 -4.984375 C 7.476562 -4.472656 7.128906 -3.976562 6.796875 -3.5 C 6.472656 -3.019531 6.15625 -2.539062 5.84375 -2.0625 C 5.53125 -1.582031 5.210938 -1.078125 4.890625 -0.546875 L 4.78125 -0.453125 L 2.953125 -0.453125 Z M 14.296875 -8.5625 C 14.859375 -8.5625 15.351562 -8.441406 15.78125 -8.203125 C 16.21875 -7.960938 16.585938 -7.640625 16.890625 -7.234375 C 17.203125 -6.835938 17.429688 -6.375 17.578125 -5.84375 C 17.734375 -5.320312 17.8125 -4.765625 17.8125 -4.171875 C 17.8125 -3.597656 17.734375 -3.039062 17.578125 -2.5 C 17.429688 -1.96875 17.203125 -1.5 16.890625 -1.09375 C 16.585938 -0.6875 16.210938 -0.359375 15.765625 -0.109375 C 15.316406 0.140625 14.804688 0.265625 14.234375 0.265625 C 13.671875 0.265625 13.175781 0.148438 12.75 -0.078125 C 12.332031 -0.316406 11.984375 -0.628906 11.703125 -1.015625 C 11.421875 -1.410156 11.207031 -1.867188 11.0625 -2.390625 C 10.914062 -2.921875 10.84375 -3.484375 10.84375 -4.078125 C 10.84375 -4.703125 10.921875 -5.285156 11.078125 -5.828125 C 11.242188 -6.367188 11.472656 -6.84375 11.765625 -7.25 C 12.066406 -7.664062 12.425781 -7.988281 12.84375 -8.21875 C 13.269531 -8.445312 13.753906 -8.5625 14.296875 -8.5625 Z M 14.296875 -0.640625 C 14.671875 -0.640625 15 -0.734375 15.28125 -0.921875 C 15.570312 -1.109375 15.816406 -1.359375 16.015625 -1.671875 C 16.210938 -1.992188 16.363281 -2.367188 16.46875 -2.796875 C 16.570312 -3.234375 16.625 -3.691406 16.625 -4.171875 C 16.625 -4.671875 16.566406 -5.128906 16.453125 -5.546875 C 16.347656 -5.972656 16.195312 -6.34375 16 -6.65625 C 15.800781 -6.96875 15.550781 -7.210938 15.25 -7.390625 C 14.957031 -7.566406 14.625 -7.65625 14.25 -7.65625 C 13.882812 -7.65625 13.566406 -7.566406 13.296875 -7.390625 C 13.023438 -7.210938 12.789062 -6.96875 12.59375 -6.65625 C 12.40625 -6.34375 12.265625 -5.972656 12.171875 -5.546875 C 12.078125 -5.128906 12.03125 -4.671875 12.03125 -4.171875 C 12.03125 -3.066406 12.238281 -2.203125 12.65625 -1.578125 C 13.082031 -0.953125 13.628906 -0.640625 14.296875 -0.640625 Z M 4.53125 -15.953125 C 5.082031 -15.953125 5.570312 -15.832031 6 -15.59375 C 6.425781 -15.351562 6.789062 -15.035156 7.09375 -14.640625 C 7.40625 -14.242188 7.632812 -13.78125 7.78125 -13.25 C 7.9375 -12.71875 8.015625 -12.15625 8.015625 -11.5625 C 8.015625 -10.988281 7.9375 -10.429688 7.78125 -9.890625 C 7.632812 -9.359375 7.410156 -8.890625 7.109375 -8.484375 C 6.816406 -8.078125 6.445312 -7.75 6 -7.5 C 5.550781 -7.25 5.039062 -7.125 4.46875 -7.125 C 3.90625 -7.125 3.410156 -7.238281 2.984375 -7.46875 C 2.566406 -7.707031 2.210938 -8.019531 1.921875 -8.40625 C 1.628906 -8.800781 1.410156 -9.257812 1.265625 -9.78125 C 1.128906 -10.3125 1.0625 -10.875 1.0625 -11.46875 C 1.0625 -12.09375 1.140625 -12.675781 1.296875 -13.21875 C 1.453125 -13.769531 1.675781 -14.25 1.96875 -14.65625 C 2.269531 -15.0625 2.632812 -15.378906 3.0625 -15.609375 C 3.5 -15.835938 3.988281 -15.953125 4.53125 -15.953125 Z M 4.53125 -8.046875 C 4.90625 -8.046875 5.234375 -8.132812 5.515625 -8.3125 C 5.804688 -8.5 6.046875 -8.75 6.234375 -9.0625 C 6.429688 -9.382812 6.582031 -9.757812 6.6875 -10.1875 C 6.789062 -10.625 6.84375 -11.082031 6.84375 -11.5625 C 6.84375 -12.0625 6.785156 -12.519531 6.671875 -12.9375 C 6.554688 -13.363281 6.398438 -13.734375 6.203125 -14.046875 C 6.003906 -14.359375 5.753906 -14.601562 5.453125 -14.78125 C 5.160156 -14.957031 4.835938 -15.046875 4.484375 -15.046875 C 4.117188 -15.046875 3.796875 -14.957031 3.515625 -14.78125 C 3.234375 -14.601562 2.992188 -14.359375 2.796875 -14.046875 C 2.609375 -13.734375 2.46875 -13.363281 2.375 -12.9375 C 2.28125 -12.519531 2.234375 -12.0625 2.234375 -11.5625 C 2.234375 -10.457031 2.445312 -9.59375 2.875 -8.96875 C 3.3125 -8.351562 3.863281 -8.046875 4.53125 -8.046875 Z M 4.53125 -8.046875 "/></g></g></g><g fill="#f6f6f4" fill-opacity="1"><g transform="translate(125.796602, 424.359523)"><g><path d="M 1.015625 -13.296875 L 1.078125 -13.4375 C 1.765625 -13.769531 2.421875 -14.125 3.046875 -14.5 C 3.671875 -14.882812 4.285156 -15.351562 4.890625 -15.90625 L 5.0625 -15.90625 L 5.59375 -15.703125 C 5.570312 -15.566406 5.554688 -15.414062 5.546875 -15.25 C 5.546875 -15.082031 5.539062 -14.910156 5.53125 -14.734375 C 5.519531 -14.554688 5.507812 -14.382812 5.5 -14.21875 C 5.5 -14.0625 5.5 -13.9375 5.5 -13.84375 C 5.476562 -13.59375 5.460938 -13.351562 5.453125 -13.125 C 5.453125 -12.90625 5.445312 -12.640625 5.4375 -12.328125 C 5.425781 -12.023438 5.421875 -11.65625 5.421875 -11.21875 C 5.421875 -10.789062 5.421875 -10.242188 5.421875 -9.578125 L 5.421875 -6.1875 C 5.421875 -5.519531 5.421875 -4.972656 5.421875 -4.546875 C 5.421875 -4.117188 5.425781 -3.757812 5.4375 -3.46875 C 5.445312 -3.1875 5.453125 -2.929688 5.453125 -2.703125 C 5.460938 -2.484375 5.484375 -2.238281 5.515625 -1.96875 C 5.546875 -1.632812 5.617188 -1.378906 5.734375 -1.203125 C 5.847656 -1.035156 5.96875 -0.898438 6.09375 -0.796875 C 6.238281 -0.679688 6.460938 -0.59375 6.765625 -0.53125 C 7.066406 -0.46875 7.335938 -0.4375 7.578125 -0.4375 L 7.703125 -0.3125 L 7.75 0 L 7.703125 0.09375 C 7.585938 0.09375 7.414062 0.0820312 7.1875 0.0625 C 6.96875 0.0507812 6.726562 0.0390625 6.46875 0.03125 C 6.21875 0.03125 5.976562 0.0234375 5.75 0.015625 C 5.53125 0.00390625 5.363281 0 5.25 0 L 3.890625 0 C 3.773438 0 3.601562 0.00390625 3.375 0.015625 C 3.15625 0.0234375 2.914062 0.03125 2.65625 0.03125 C 2.40625 0.0390625 2.164062 0.0507812 1.9375 0.0625 C 1.71875 0.0820312 1.550781 0.09375 1.4375 0.09375 L 1.390625 0 L 1.4375 -0.34375 L 1.515625 -0.4375 C 1.765625 -0.4375 2.050781 -0.460938 2.375 -0.515625 C 2.707031 -0.566406 2.941406 -0.660156 3.078125 -0.796875 C 3.203125 -0.898438 3.316406 -1.039062 3.421875 -1.21875 C 3.535156 -1.394531 3.609375 -1.644531 3.640625 -1.96875 C 3.660156 -2.175781 3.675781 -2.378906 3.6875 -2.578125 C 3.707031 -2.773438 3.722656 -3.003906 3.734375 -3.265625 C 3.742188 -3.535156 3.75 -3.851562 3.75 -4.21875 C 3.75 -4.59375 3.75 -5.054688 3.75 -5.609375 L 3.75 -9.53125 C 3.75 -10.1875 3.75 -10.71875 3.75 -11.125 C 3.75 -11.53125 3.742188 -11.867188 3.734375 -12.140625 C 3.722656 -12.410156 3.707031 -12.644531 3.6875 -12.84375 C 3.675781 -13.050781 3.660156 -13.28125 3.640625 -13.53125 L 1.078125 -12.890625 L 1.015625 -12.984375 Z M 1.015625 -13.296875 "/></g></g></g><g fill="#f6f6f4" fill-opacity="1"><g transform="translate(134.292615, 424.359523)"><g><path d="M 9.84375 -4.828125 C 9.84375 -5.492188 9.726562 -6.039062 9.5 -6.46875 C 9.28125 -6.894531 8.992188 -7.226562 8.640625 -7.46875 C 8.285156 -7.71875 7.878906 -7.882812 7.421875 -7.96875 C 6.972656 -8.0625 6.523438 -8.109375 6.078125 -8.109375 C 5.492188 -8.109375 4.921875 -8.046875 4.359375 -7.921875 C 3.804688 -7.796875 3.296875 -7.59375 2.828125 -7.3125 L 2.59375 -7.3125 L 1.9375 -7.6875 L 1.890625 -7.84375 L 2.65625 -15.5 L 2.8125 -15.703125 L 4.96875 -15.703125 C 5.394531 -15.703125 6.03125 -15.710938 6.875 -15.734375 C 7.726562 -15.753906 8.707031 -15.804688 9.8125 -15.890625 L 10.03125 -15.703125 L 10.390625 -13.109375 L 10.25 -12.9375 L 9.8125 -12.9375 L 9.671875 -13.0625 C 9.609375 -13.40625 9.523438 -13.675781 9.421875 -13.875 C 9.328125 -14.082031 9.144531 -14.234375 8.875 -14.328125 C 8.601562 -14.421875 8.210938 -14.476562 7.703125 -14.5 C 7.191406 -14.53125 6.492188 -14.546875 5.609375 -14.546875 L 4.171875 -14.546875 C 4.078125 -14.546875 4.03125 -14.503906 4.03125 -14.421875 L 3.546875 -9.046875 C 3.960938 -9.203125 4.421875 -9.320312 4.921875 -9.40625 C 5.429688 -9.488281 5.96875 -9.53125 6.53125 -9.53125 C 7.1875 -9.53125 7.816406 -9.453125 8.421875 -9.296875 C 9.035156 -9.148438 9.578125 -8.90625 10.046875 -8.5625 C 10.515625 -8.21875 10.890625 -7.753906 11.171875 -7.171875 C 11.453125 -6.597656 11.59375 -5.878906 11.59375 -5.015625 C 11.59375 -4.171875 11.445312 -3.421875 11.15625 -2.765625 C 10.875 -2.109375 10.472656 -1.554688 9.953125 -1.109375 C 9.429688 -0.660156 8.8125 -0.316406 8.09375 -0.078125 C 7.375 0.148438 6.582031 0.265625 5.71875 0.265625 C 4.59375 0.265625 3.679688 0.0859375 2.984375 -0.265625 C 2.285156 -0.617188 1.722656 -1.09375 1.296875 -1.6875 L 1.265625 -1.921875 L 1.53125 -3.625 L 2.40625 -3.625 L 2.46875 -3.53125 C 2.5 -2.8125 2.804688 -2.210938 3.390625 -1.734375 C 3.972656 -1.253906 4.828125 -1.015625 5.953125 -1.015625 C 6.671875 -1.015625 7.273438 -1.113281 7.765625 -1.3125 C 8.265625 -1.519531 8.664062 -1.800781 8.96875 -2.15625 C 9.28125 -2.507812 9.503906 -2.914062 9.640625 -3.375 C 9.773438 -3.84375 9.84375 -4.328125 9.84375 -4.828125 Z M 9.84375 -4.828125 "/></g></g></g><g fill="#f6f6f4" fill-opacity="1"><g transform="translate(147.036641, 424.359523)"><g><path d="M 2.96875 -0.546875 C 3.414062 -1.078125 3.832031 -1.582031 4.21875 -2.0625 C 4.601562 -2.539062 4.984375 -3.019531 5.359375 -3.5 C 5.734375 -3.976562 6.109375 -4.472656 6.484375 -4.984375 C 6.867188 -5.503906 7.273438 -6.066406 7.703125 -6.671875 L 10.578125 -10.625 C 11.171875 -11.445312 11.785156 -12.304688 12.421875 -13.203125 C 13.066406 -14.097656 13.671875 -15.050781 14.234375 -16.0625 L 14.359375 -16.15625 L 16.171875 -16.15625 L 16.15625 -16.0625 C 15.269531 -15.082031 14.488281 -14.128906 13.8125 -13.203125 C 13.132812 -12.285156 12.503906 -11.425781 11.921875 -10.625 L 9.046875 -6.671875 C 8.617188 -6.066406 8.21875 -5.503906 7.84375 -4.984375 C 7.476562 -4.472656 7.128906 -3.976562 6.796875 -3.5 C 6.472656 -3.019531 6.15625 -2.539062 5.84375 -2.0625 C 5.53125 -1.582031 5.210938 -1.078125 4.890625 -0.546875 L 4.78125 -0.453125 L 2.953125 -0.453125 Z M 14.296875 -8.5625 C 14.859375 -8.5625 15.351562 -8.441406 15.78125 -8.203125 C 16.21875 -7.960938 16.585938 -7.640625 16.890625 -7.234375 C 17.203125 -6.835938 17.429688 -6.375 17.578125 -5.84375 C 17.734375 -5.320312 17.8125 -4.765625 17.8125 -4.171875 C 17.8125 -3.597656 17.734375 -3.039062 17.578125 -2.5 C 17.429688 -1.96875 17.203125 -1.5 16.890625 -1.09375 C 16.585938 -0.6875 16.210938 -0.359375 15.765625 -0.109375 C 15.316406 0.140625 14.804688 0.265625 14.234375 0.265625 C 13.671875 0.265625 13.175781 0.148438 12.75 -0.078125 C 12.332031 -0.316406 11.984375 -0.628906 11.703125 -1.015625 C 11.421875 -1.410156 11.207031 -1.867188 11.0625 -2.390625 C 10.914062 -2.921875 10.84375 -3.484375 10.84375 -4.078125 C 10.84375 -4.703125 10.921875 -5.285156 11.078125 -5.828125 C 11.242188 -6.367188 11.472656 -6.84375 11.765625 -7.25 C 12.066406 -7.664062 12.425781 -7.988281 12.84375 -8.21875 C 13.269531 -8.445312 13.753906 -8.5625 14.296875 -8.5625 Z M 14.296875 -0.640625 C 14.671875 -0.640625 15 -0.734375 15.28125 -0.921875 C 15.570312 -1.109375 15.816406 -1.359375 16.015625 -1.671875 C 16.210938 -1.992188 16.363281 -2.367188 16.46875 -2.796875 C 16.570312 -3.234375 16.625 -3.691406 16.625 -4.171875 C 16.625 -4.671875 16.566406 -5.128906 16.453125 -5.546875 C 16.347656 -5.972656 16.195312 -6.34375 16 -6.65625 C 15.800781 -6.96875 15.550781 -7.210938 15.25 -7.390625 C 14.957031 -7.566406 14.625 -7.65625 14.25 -7.65625 C 13.882812 -7.65625 13.566406 -7.566406 13.296875 -7.390625 C 13.023438 -7.210938 12.789062 -6.96875 12.59375 -6.65625 C 12.40625 -6.34375 12.265625 -5.972656 12.171875 -5.546875 C 12.078125 -5.128906 12.03125 -4.671875 12.03125 -4.171875 C 12.03125 -3.066406 12.238281 -2.203125 12.65625 -1.578125 C 13.082031 -0.953125 13.628906 -0.640625 14.296875 -0.640625 Z M 4.53125 -15.953125 C 5.082031 -15.953125 5.570312 -15.832031 6 -15.59375 C 6.425781 -15.351562 6.789062 -15.035156 7.09375 -14.640625 C 7.40625 -14.242188 7.632812 -13.78125 7.78125 -13.25 C 7.9375 -12.71875 8.015625 -12.15625 8.015625 -11.5625 C 8.015625 -10.988281 7.9375 -10.429688 7.78125 -9.890625 C 7.632812 -9.359375 7.410156 -8.890625 7.109375 -8.484375 C 6.816406 -8.078125 6.445312 -7.75 6 -7.5 C 5.550781 -7.25 5.039062 -7.125 4.46875 -7.125 C 3.90625 -7.125 3.410156 -7.238281 2.984375 -7.46875 C 2.566406 -7.707031 2.210938 -8.019531 1.921875 -8.40625 C 1.628906 -8.800781 1.410156 -9.257812 1.265625 -9.78125 C 1.128906 -10.3125 1.0625 -10.875 1.0625 -11.46875 C 1.0625 -12.09375 1.140625 -12.675781 1.296875 -13.21875 C 1.453125 -13.769531 1.675781 -14.25 1.96875 -14.65625 C 2.269531 -15.0625 2.632812 -15.378906 3.0625 -15.609375 C 3.5 -15.835938 3.988281 -15.953125 4.53125 -15.953125 Z M 4.53125 -8.046875 C 4.90625 -8.046875 5.234375 -8.132812 5.515625 -8.3125 C 5.804688 -8.5 6.046875 -8.75 6.234375 -9.0625 C 6.429688 -9.382812 6.582031 -9.757812 6.6875 -10.1875 C 6.789062 -10.625 6.84375 -11.082031 6.84375 -11.5625 C 6.84375 -12.0625 6.785156 -12.519531 6.671875 -12.9375 C 6.554688 -13.363281 6.398438 -13.734375 6.203125 -14.046875 C 6.003906 -14.359375 5.753906 -14.601562 5.453125 -14.78125 C 5.160156 -14.957031 4.835938 -15.046875 4.484375 -15.046875 C 4.117188 -15.046875 3.796875 -14.957031 3.515625 -14.78125 C 3.234375 -14.601562 2.992188 -14.359375 2.796875 -14.046875 C 2.609375 -13.734375 2.46875 -13.363281 2.375 -12.9375 C 2.28125 -12.519531 2.234375 -12.0625 2.234375 -11.5625 C 2.234375 -10.457031 2.445312 -9.59375 2.875 -8.96875 C 3.3125 -8.351562 3.863281 -8.046875 4.53125 -8.046875 Z M 4.53125 -8.046875 "/></g></g></g></svg>